<svg xmlns="http://www.w3.org/2000/svg" width="80" height="60" viewBox="0 0 80 60" fill="none">
  <rect width="80" height="60" fill="white"/>
  <path d="M40 15C31.7157 15 25 21.7157 25 30C25 38.2843 31.7157 45 40 45C48.2843 45 55 38.2843 55 30C55 21.7157 48.2843 15 40 15Z" fill="white"/>
  <path d="M40 22.5C44.1421 22.5 47.5 25.8579 47.5 30C47.5 34.1421 44.1421 37.5 40 37.5C35.8579 37.5 32.5 34.1421 32.5 30C32.5 25.8579 35.8579 22.5 40 22.5Z" fill="#C60C30"/>
  <path d="M33.75 20C33.75 20 27.5 22.5 25 25C22.5 27.5 22.5 27.5 22.5 27.5" stroke="#003478" stroke-width="2.5"/>
  <path d="M33.75 40C33.75 40 27.5 37.5 25 35C22.5 32.5 22.5 32.5 22.5 32.5" stroke="#003478" stroke-width="2.5"/>
  <path d="M46.25 20C46.25 20 52.5 22.5 55 25C57.5 27.5 57.5 27.5 57.5 27.5" stroke="#003478" stroke-width="2.5"/>
  <path d="M46.25 40C46.25 40 52.5 37.5 55 35C57.5 32.5 57.5 32.5 57.5 32.5" stroke="#003478" stroke-width="2.5"/>
  <path d="M10 12.5H15V17.5H10V12.5Z" fill="#003478"/>
  <path d="M10 17.5H15V22.5H10V17.5Z" fill="#003478"/>
  <path d="M15 12.5H20V17.5H15V12.5Z" fill="#003478"/>
  <path d="M15 17.5H20V22.5H15V17.5Z" fill="white"/>
  <path d="M10 37.5H15V42.5H10V37.5Z" fill="#003478"/>
  <path d="M10 42.5H15V47.5H10V42.5Z" fill="#003478"/>
  <path d="M15 37.5H20V42.5H15V37.5Z" fill="#003478"/>
  <path d="M15 42.5H20V47.5H15V47.5Z" fill="white"/>
  <path d="M60 12.5H65V17.5H60V12.5Z" fill="#003478"/>
  <path d="M60 17.5H65V22.5H60V17.5Z" fill="white"/>
  <path d="M65 12.5H70V17.5H65V12.5Z" fill="#003478"/>
  <path d="M65 17.5H70V22.5H65V17.5Z" fill="#003478"/>
  <path d="M60 37.5H65V42.5H60V37.5Z" fill="white"/>
  <path d="M60 42.5H65V47.5H60V42.5Z" fill="#003478"/>
  <path d="M65 37.5H70V42.5H65V37.5Z" fill="#003478"/>
  <path d="M65 42.5H70V47.5H65V47.5Z" fill="#003478"/>
</svg> 