<svg xmlns="http://www.w3.org/2000/svg" width="100" height="24" viewBox="0 0 100 24" fill="none">
  <path d="M13.8 12.4C13.8 16.8 10.4 20.2 6 20.2C1.6 20.2 -1.8 16.8 -1.8 12.4C-1.8 8 1.6 4.6 6 4.6C10.4 4.6 13.8 8 13.8 12.4Z" fill="#FFFFFF"/>
  <path d="M6 20.7C1.35 20.7 -2.3 17.05 -2.3 12.4C-2.3 7.75 1.35 4.1 6 4.1C10.65 4.1 14.3 7.75 14.3 12.4C14.3 17.05 10.65 20.7 6 20.7ZM6 5.1C1.9 5.1 -1.3 8.3 -1.3 12.4C-1.3 16.5 1.9 19.7 6 19.7C10.1 19.7 13.3 16.5 13.3 12.4C13.3 8.3 10.1 5.1 6 5.1Z" fill="#FFFFFF"/>
  <path d="M10.7 12.4C10.7 15.1 8.7 17.1 6 17.1C3.3 17.1 1.3 15.1 1.3 12.4C1.3 9.7 3.3 7.7 6 7.7C8.7 7.7 10.7 9.7 10.7 12.4Z" fill="#333333"/>
  <path d="M6 17.6C3.05 17.6 0.8 15.35 0.8 12.4C0.8 9.45 3.05 7.2 6 7.2C8.95 7.2 11.2 9.45 11.2 12.4C11.2 15.35 8.95 17.6 6 17.6ZM6 8.2C3.55 8.2 1.8 9.95 1.8 12.4C1.8 14.85 3.55 16.6 6 16.6C8.45 16.6 10.2 14.85 10.2 12.4C10.2 9.95 8.45 8.2 6 8.2Z" fill="#333333"/>
  <path d="M24 7.5V17.5" stroke="#FFFFFF" stroke-width="1.5" stroke-linecap="round" stroke-linejoin="round"/>
  <path d="M19.5 12.5H28.5" stroke="#FFFFFF" stroke-width="1.5" stroke-linecap="round" stroke-linejoin="round"/>
  <path d="M39 7.8H35.2V17.2H33.4V7.8H29.6V6.4H39V7.8Z" fill="#FFFFFF"/>
  <path d="M47.6 13.8H42C42.1 14.9 42.9 15.6 44 15.6C44.8 15.6 45.3 15.3 45.7 14.7L47.3 15.3C46.6 16.5 45.4 17.3 44 17.3C41.8 17.3 40.2 15.6 40.2 13.3C40.2 11 41.7 9.3 43.8 9.3C45.9 9.3 47.7 11 47.7 13.4C47.7 13.5 47.7 13.6 47.6 13.8ZM42 12.5H45.8C45.6 11.4 44.8 10.9 43.8 10.9C42.9 10.9 42.2 11.4 42 12.5Z" fill="#FFFFFF"/>
  <path d="M59.3 6.2V17.2H57.7V12.5H52.4V17.2H50.8V6.2H52.4V11H57.7V6.2H59.3Z" fill="#FFFFFF"/>
  <path d="M66.8 9.3C68.3 9.3 69.8 10.1 70.3 11.9L68.9 12.5C68.6 11.3 67.7 10.9 66.8 10.9C65.5 10.9 64.5 11.9 64.5 13.3C64.5 14.7 65.5 15.7 66.8 15.7C67.7 15.7 68.6 15.3 68.9 14.1L70.3 14.7C69.7 16.5 68.3 17.3 66.8 17.3C64.6 17.3 62.8 15.6 62.8 13.3C62.8 11 64.6 9.3 66.8 9.3Z" fill="#FFFFFF"/>
  <path d="M78.9 9.5V17.2H77.3V15.9C76.8 16.8 75.9 17.3 74.8 17.3C73.1 17.3 71.9 16.1 71.9 14.3V9.5H73.6V14C73.6 15 74.3 15.7 75.3 15.7C76.4 15.7 77.2 14.9 77.2 13.6V9.5H78.9Z" fill="#FFFFFF"/>
  <path d="M88.3 13.3C88.3 15.6 86.8 17.3 84.7 17.3C83.6 17.3 82.7 16.8 82.1 16V20.1H80.4V9.5H82V10.6C82.6 9.8 83.6 9.3 84.7 9.3C86.8 9.3 88.3 11 88.3 13.3ZM86.6 13.3C86.6 11.9 85.6 10.9 84.3 10.9C83 10.9 82 11.9 82 13.3C82 14.7 83 15.7 84.3 15.7C85.6 15.7 86.6 14.7 86.6 13.3Z" fill="#FFFFFF"/>
  <path d="M99.6 9.5L96.4 17.2H94.5L91.3 9.5H93.1L95.4 15.6L97.7 9.5H99.6Z" fill="#FFFFFF"/>
</svg> 