<svg xmlns="http://www.w3.org/2000/svg" width="120" height="32" viewBox="0 0 120 32" fill="none">
  <path d="M13.8 16.4C13.8 20.8 10.4 24.2 6 24.2C1.6 24.2 -1.8 20.8 -1.8 16.4C-1.8 12 1.6 8.6 6 8.6C10.4 8.6 13.8 12 13.8 16.4Z" fill="#F64E60"/>
  <path d="M6 24.7C1.35 24.7 -2.3 21.05 -2.3 16.4C-2.3 11.75 1.35 8.1 6 8.1C10.65 8.1 14.3 11.75 14.3 16.4C14.3 21.05 10.65 24.7 6 24.7ZM6 9.1C1.9 9.1 -1.3 12.3 -1.3 16.4C-1.3 20.5 1.9 23.7 6 23.7C10.1 23.7 13.3 20.5 13.3 16.4C13.3 12.3 10.1 9.1 6 9.1Z" fill="#F64E60"/>
  <path d="M10.7 16.4C10.7 19.1 8.7 21.1 6 21.1C3.3 21.1 1.3 19.1 1.3 16.4C1.3 13.7 3.3 11.7 6 11.7C8.7 11.7 10.7 13.7 10.7 16.4Z" fill="white"/>
  <path d="M6 21.6C3.05 21.6 0.8 19.35 0.8 16.4C0.8 13.45 3.05 11.2 6 11.2C8.95 11.2 11.2 13.45 11.2 16.4C11.2 19.35 8.95 21.6 6 21.6ZM6 12.2C3.55 12.2 1.8 13.95 1.8 16.4C1.8 18.85 3.55 20.6 6 20.6C8.45 20.6 10.2 18.85 10.2 16.4C10.2 13.95 8.45 12.2 6 12.2Z" fill="white"/>
  <path d="M24 11.5V21.5" stroke="#333333" stroke-width="1.5" stroke-linecap="round" stroke-linejoin="round"/>
  <path d="M19.5 16.5H28.5" stroke="#333333" stroke-width="1.5" stroke-linecap="round" stroke-linejoin="round"/>
  <path d="M39 11.8H35.2V21.2H33.4V11.8H29.6V10.4H39V11.8Z" fill="#333333"/>
  <path d="M47.6 17.8H42C42.1 18.9 42.9 19.6 44 19.6C44.8 19.6 45.3 19.3 45.7 18.7L47.3 19.3C46.6 20.5 45.4 21.3 44 21.3C41.8 21.3 40.2 19.6 40.2 17.3C40.2 15 41.7 13.3 43.8 13.3C45.9 13.3 47.7 15 47.7 17.4C47.7 17.5 47.7 17.6 47.6 17.8ZM42 16.5H45.8C45.6 15.4 44.8 14.9 43.8 14.9C42.9 14.9 42.2 15.4 42 16.5Z" fill="#333333"/>
  <path d="M59.3 10.2V21.2H57.7V16.5H52.4V21.2H50.8V10.2H52.4V15H57.7V10.2H59.3Z" fill="#333333"/>
  <path d="M66.8 13.3C68.3 13.3 69.8 14.1 70.3 15.9L68.9 16.5C68.6 15.3 67.7 14.9 66.8 14.9C65.5 14.9 64.5 15.9 64.5 17.3C64.5 18.7 65.5 19.7 66.8 19.7C67.7 19.7 68.6 19.3 68.9 18.1L70.3 18.7C69.7 20.5 68.3 21.3 66.8 21.3C64.6 21.3 62.8 19.6 62.8 17.3C62.8 15 64.6 13.3 66.8 13.3Z" fill="#333333"/>
  <path d="M78.9 13.5V21.2H77.3V19.9C76.8 20.8 75.9 21.3 74.8 21.3C73.1 21.3 71.9 20.1 71.9 18.3V13.5H73.6V18C73.6 19 74.3 19.7 75.3 19.7C76.4 19.7 77.2 18.9 77.2 17.6V13.5H78.9Z" fill="#333333"/>
  <path d="M88.3 17.3C88.3 19.6 86.8 21.3 84.7 21.3C83.6 21.3 82.7 20.8 82.1 20V24.1H80.4V13.5H82V14.6C82.6 13.8 83.6 13.3 84.7 13.3C86.8 13.3 88.3 15 88.3 17.3ZM86.6 17.3C86.6 15.9 85.6 14.9 84.3 14.9C83 14.9 82 15.9 82 17.3C82 18.7 83 19.7 84.3 19.7C85.6 19.7 86.6 18.7 86.6 17.3Z" fill="#333333"/>
  <path d="M99.6 13.5L96.4 21.2H94.5L91.3 13.5H93.1L95.4 19.6L97.7 13.5H99.6Z" fill="#333333"/>
  <path d="M108.7 17.3C108.7 19.6 107 21.3 104.8 21.3C102.6 21.3 100.9 19.6 100.9 17.3C100.9 15 102.6 13.3 104.8 13.3C107 13.3 108.7 15 108.7 17.3ZM107 17.3C107 15.9 106 14.9 104.8 14.9C103.6 14.9 102.6 15.9 102.6 17.3C102.6 18.7 103.6 19.7 104.8 19.7C106 19.7 107 18.7 107 17.3Z" fill="#333333"/>
  <path d="M119.6 13.5V21.2H118V19.9C117.5 20.8 116.6 21.3 115.5 21.3C113.8 21.3 112.6 20.1 112.6 18.3V13.5H114.3V18C114.3 19 115 19.7 116 19.7C117.1 19.7 117.9 18.9 117.9 17.6V13.5H119.6Z" fill="#333333"/>
</svg> 