<svg width="32" height="32" viewBox="0 0 32 32" fill="none" xmlns="http://www.w3.org/2000/svg">
<path d="M16.1815 2.99925C8.87023 2.9005 2.90148 8.86925 3.00023 16.1805C3.09773 23.1924 8.80711 28.9018 15.819 28.9993C23.1315 29.0993 29.099 23.1305 28.999 15.8193C28.9027 8.80613 23.1934 3.09675 16.1815 2.99925ZM24.0827 23.4524C24.0578 23.4793 24.0273 23.5004 23.9934 23.5142C23.9594 23.528 23.9228 23.5342 23.8862 23.5323C23.8495 23.5304 23.8138 23.5205 23.7814 23.5032C23.7491 23.4859 23.7209 23.4617 23.699 23.4324C23.1399 22.701 22.4553 22.0748 21.6771 21.583C20.0859 20.5618 18.0696 19.9993 16.0002 19.9993C13.9309 19.9993 11.9146 20.5618 10.3234 21.583C9.54512 22.0745 8.8605 22.7005 8.30148 23.4318C8.27952 23.4611 8.25136 23.4853 8.21901 23.5026C8.18667 23.5198 8.15091 23.5298 8.11429 23.5317C8.07767 23.5336 8.04108 23.5274 8.00711 23.5136C7.97314 23.4998 7.94263 23.4787 7.91773 23.4518C6.08378 21.472 5.04492 18.8851 5.00023 16.1868C4.89836 10.1049 9.88898 5.01425 15.9734 4.99925C22.0577 4.98425 27.0002 9.92488 27.0002 15.9993C27.0023 18.7626 25.9602 21.4248 24.0827 23.4524Z" fill="black"/>
<path d="M16.0003 9C14.7678 9 13.6534 9.46188 12.8615 10.3013C12.0696 11.1406 11.674 12.3012 11.7634 13.5469C11.9446 16 13.8453 18 16.0003 18C18.1553 18 20.0521 16 20.2371 13.5475C20.3296 12.3137 19.9371 11.1638 19.1321 10.3088C18.3371 9.465 17.2246 9 16.0003 9Z" fill="black"/>
</svg>
