<svg xmlns="http://www.w3.org/2000/svg" width="20" height="20" viewBox="0 0 20 20" fill="none">
  <path d="M10 12.5C11.3807 12.5 12.5 11.3807 12.5 10C12.5 8.61929 11.3807 7.5 10 7.5C8.61929 7.5 7.5 8.61929 7.5 10C7.5 11.3807 8.61929 12.5 10 12.5Z" stroke="#555555" stroke-width="2" stroke-linecap="round" stroke-linejoin="round"/>
  <path d="M16.1666 12.5C16.0557 12.7513 16.0226 13.0302 16.0716 13.3005C16.1206 13.5708 16.2495 13.8203 16.4416 14.0167L16.4916 14.0667C16.6465 14.2215 16.7695 14.4053 16.8533 14.6075C16.9371 14.8097 16.9802 15.0264 16.9802 15.245C16.9802 15.4637 16.9371 15.6804 16.8533 15.8825C16.7695 16.0847 16.6465 16.2686 16.4916 16.4233C16.3368 16.5782 16.153 16.7012 15.9508 16.785C15.7486 16.8688 15.532 16.9119 15.3133 16.9119C15.0946 16.9119 14.878 16.8688 14.6758 16.785C14.4736 16.7012 14.2898 16.5782 14.135 16.4233L14.085 16.3733C13.8886 16.1813 13.6391 16.0524 13.3688 16.0034C13.0985 15.9543 12.8195 15.9875 12.5683 16.0983C12.3229 16.2045 12.1148 16.381 11.9693 16.6046C11.8238 16.8282 11.7471 17.0887 11.75 17.355V17.5C11.75 17.9419 11.5744 18.366 11.2618 18.6785C10.9493 18.9911 10.5252 19.1667 10.0833 19.1667C9.64141 19.1667 9.21738 18.9911 8.90482 18.6785C8.59226 18.366 8.41667 17.9419 8.41667 17.5V17.425C8.41354 17.1539 8.32631 16.8902 8.16839 16.6667C8.01047 16.4432 7.78728 16.2709 7.53333 16.175C7.28214 16.0641 7.00321 16.031 6.73291 16.08C6.4626 16.129 6.21311 16.2579 6.01667 16.45L5.96667 16.5C5.81193 16.6549 5.62806 16.7778 5.42588 16.8616C5.2237 16.9454 5.00706 16.9886 4.78833 16.9886C4.56961 16.9886 4.35297 16.9454 4.15079 16.8616C3.94861 16.7778 3.76474 16.6549 3.61 16.5C3.45514 16.3453 3.33217 16.1614 3.24839 15.9592C3.16461 15.757 3.1215 15.5404 3.1215 15.3217C3.1215 15.103 3.16461 14.8863 3.24839 14.6841C3.33217 14.482 3.45514 14.2981 3.61 14.1433L3.66 14.0933C3.85202 13.8969 3.98094 13.6474 4.0299 13.3771C4.07886 13.1068 4.04568 12.8278 3.935 12.5767C3.82882 12.3313 3.65229 12.1231 3.42871 11.9776C3.20513 11.8321 2.94468 11.7555 2.67833 11.7583H2.5C2.05797 11.7583 1.63395 11.5827 1.32139 11.2702C1.00883 10.9576 0.833336 10.5336 0.833336 10.0917C0.833336 9.64968 1.00883 9.22565 1.32139 8.91309C1.63395 8.60053 2.05797 8.42499 2.5 8.42499H2.575C2.84614 8.42186 3.10982 8.33463 3.33333 8.17672C3.55684 8.0188 3.72918 7.7956 3.825 7.54166C3.93568 7.29047 3.96886 7.01154 3.9199 6.74124C3.87095 6.47093 3.74202 6.22144 3.55 6.02499L3.5 5.97499C3.34514 5.82025 3.22217 5.63638 3.13839 5.4342C3.05461 5.23202 3.0115 5.01538 3.0115 4.79666C3.0115 4.57794 3.05461 4.3613 3.13839 4.15912C3.22217 3.95694 3.34514 3.77307 3.5 3.61833C3.65474 3.46347 3.83861 3.3405 4.04079 3.25672C4.24297 3.17294 4.45961 3.12983 4.67833 3.12983C4.89706 3.12983 5.1137 3.17294 5.31588 3.25672C5.51806 3.3405 5.70193 3.46347 5.85667 3.61833L5.90667 3.66833C6.10311 3.86035 6.3526 3.98927 6.62291 4.03823C6.89322 4.08719 7.17214 4.05401 7.42333 3.94333H7.5C7.74537 3.83715 7.95354 3.66062 8.09902 3.43704C8.2445 3.21346 8.32113 2.95301 8.31833 2.68666V2.50833C8.31833 2.0663 8.49387 1.64227 8.80643 1.32971C9.11899 1.01715 9.54301 0.841661 9.98503 0.841661C10.427 0.841661 10.8511 1.01715 11.1636 1.32971C11.4762 1.64227 11.6517 2.0663 11.6517 2.50833V2.58333C11.6489 2.84967 11.7255 3.11012 11.871 3.33371C12.0165 3.55729 12.2247 3.73382 12.47 3.83999C12.7212 3.95067 13.0002 3.98385 13.2705 3.9349C13.5408 3.88594 13.7903 3.75701 13.9867 3.56499L14.0367 3.51499C14.1914 3.36013 14.3753 3.23717 14.5775 3.15339C14.7797 3.06961 14.9963 3.0265 15.215 3.0265C15.4337 3.0265 15.6504 3.06961 15.8525 3.15339C16.0547 3.23717 16.2386 3.36013 16.3933 3.51499C16.5482 3.66973 16.6712 3.8536 16.755 4.05578C16.8387 4.25796 16.8818 4.4746 16.8818 4.69333C16.8818 4.91205 16.8387 5.12869 16.755 5.33087C16.6712 5.53305 16.5482 5.71692 16.3933 5.87166L16.3433 5.92166C16.1513 6.1181 16.0224 6.36759 15.9734 6.6379C15.9245 6.9082 15.9577 7.18713 16.0683 7.43833V7.51499C16.1745 7.76037 16.3511 7.96853 16.5746 8.11401C16.7982 8.25949 17.0587 8.33612 17.325 8.33333H17.5C17.942 8.33333 18.366 8.50887 18.6786 8.82143C18.9912 9.13399 19.1667 9.55801 19.1667 10C19.1667 10.442 18.9912 10.866 18.6786 11.1786C18.366 11.4911 17.942 11.6667 17.5 11.6667H17.425C17.1587 11.6639 16.8982 11.7405 16.6746 11.886C16.451 12.0315 16.2745 12.2397 16.1683 12.485L16.1666 12.5Z" stroke="#555555" stroke-width="2" stroke-linecap="round" stroke-linejoin="round"/>
</svg> 