<svg width="200" height="28" viewBox="0 0 200 28" fill="none" xmlns="http://www.w3.org/2000/svg">
<path d="M104.215 9.2583C104.215 8.4423 104.335 7.6823 104.575 6.9783C104.815 6.2743 105.175 5.6743 105.655 5.1783C106.135 4.6663 106.735 4.2663 107.455 3.9783C108.175 3.6903 109.015 3.5463 109.975 3.5463C110.935 3.5463 111.775 3.6903 112.495 3.9783C113.215 4.2663 113.815 4.6663 114.295 5.1783C114.775 5.6743 115.135 6.2743 115.375 6.9783C115.615 7.6823 115.735 8.4423 115.735 9.2583C115.735 10.0743 115.615 10.8343 115.375 11.5383C115.135 12.2423 114.775 12.8503 114.295 13.3623C113.815 13.8583 113.215 14.2503 112.495 14.5383C111.775 14.8263 110.935 14.9703 109.975 14.9703C109.015 14.9703 108.175 14.8263 107.455 14.5383C106.735 14.2503 106.135 13.8583 105.655 13.3623C105.175 12.8503 104.815 12.2423 104.575 11.5383C104.335 10.8343 104.215 10.0743 104.215 9.2583ZM112.807 9.2583C112.807 8.8263 112.751 8.4183 112.639 8.0343C112.543 7.6503 112.383 7.3223 112.159 7.0503C111.935 6.7623 111.639 6.5383 111.271 6.3783C110.919 6.2023 110.487 6.1143 109.975 6.1143C109.463 6.1143 109.023 6.2023 108.655 6.3783C108.303 6.5383 108.015 6.7623 107.791 7.0503C107.567 7.3223 107.399 7.6503 107.287 8.0343C107.191 8.4183 107.143 8.8263 107.143 9.2583C107.143 9.6903 107.191 10.0983 107.287 10.4823C107.399 10.8663 107.567 11.2023 107.791 11.4903C108.015 11.7623 108.303 11.9863 108.655 12.1623C109.023 12.3223 109.463 12.4023 109.975 12.4023C110.487 12.4023 110.919 12.3223 111.271 12.1623C111.639 11.9863 111.935 11.7623 112.159 11.4903C112.383 11.2023 112.543 10.8663 112.639 10.4823C112.751 10.0983 112.807 9.6903 112.807 9.2583ZM121.879 17.5383C121.879 17.9863 121.719 18.3143 121.399 18.5223C121.095 18.7303 120.743 18.8343 120.343 18.8343C119.943 18.8343 119.583 18.7303 119.263 18.5223C118.959 18.3143 118.807 17.9863 118.807 17.5383V3.7623C118.807 3.3143 118.959 2.9863 119.263 2.7783C119.583 2.5703 119.943 2.4663 120.343 2.4663C120.743 2.4663 121.095 2.5703 121.399 2.7783C121.719 2.9863 121.879 3.3143 121.879 3.7623V17.5383ZM109.471 24.5463C108.703 24.5463 108.167 24.4023 107.863 24.1143C107.575 23.8263 107.431 23.3063 107.431 22.5543V18.0183C107.431 17.5703 107.583 17.2423 107.887 17.0343C108.207 16.8263 108.575 16.7223 108.991 16.7223C109.391 16.7223 109.743 16.8263 110.047 17.0343C110.367 17.2423 110.527 17.5703 110.527 18.0183V21.3783C110.527 21.7463 110.711 21.9303 111.079 21.9303H121.327C121.695 21.9303 121.967 22.0583 122.143 22.3143C122.319 22.5703 122.407 22.8823 122.407 23.2503C122.407 23.6023 122.319 23.9063 122.143 24.1623C121.967 24.4183 121.695 24.5463 121.327 24.5463H109.471ZM133.715 8.2263C133.715 8.7063 133.747 9.1463 133.811 9.5463C133.875 9.9463 133.979 10.3303 134.123 10.6983C134.267 11.0663 134.451 11.4263 134.675 11.7783C134.915 12.1143 135.203 12.4663 135.539 12.8343C135.971 13.2983 136.403 13.7543 136.835 14.2023C137.283 14.6503 137.691 15.0343 138.059 15.3543C138.363 15.6263 138.483 15.9543 138.419 16.3383C138.355 16.7063 138.203 17.0183 137.963 17.2743C137.851 17.3863 137.715 17.4823 137.555 17.5623C137.395 17.6423 137.227 17.6983 137.051 17.7303C136.891 17.7463 136.723 17.7303 136.547 17.6823C136.387 17.6343 136.235 17.5463 136.091 17.4183C135.771 17.1303 135.419 16.8023 135.035 16.4343C134.667 16.0503 134.291 15.6503 133.907 15.2343C133.267 14.5623 132.827 14.0583 132.587 13.7223C132.363 13.3863 132.227 13.0983 132.179 12.8583H132.155C132.123 13.0023 132.075 13.1463 132.011 13.2903C131.947 13.4343 131.843 13.6023 131.699 13.7943C131.571 13.9863 131.403 14.2023 131.195 14.4423C130.987 14.6823 130.723 14.9703 130.403 15.3063C130.019 15.7223 129.619 16.1303 129.203 16.5303C128.803 16.9303 128.363 17.3543 127.883 17.8023C127.579 18.0743 127.235 18.1623 126.851 18.0663C126.483 17.9543 126.187 17.7783 125.963 17.5383C125.723 17.2663 125.595 16.9463 125.579 16.5783C125.563 16.2103 125.699 15.8903 125.987 15.6183C126.979 14.7063 127.907 13.7783 128.771 12.8343C129.107 12.4663 129.387 12.1143 129.611 11.7783C129.851 11.4263 130.043 11.0663 130.187 10.6983C130.331 10.3303 130.435 9.9463 130.499 9.5463C130.563 9.1463 130.595 8.7063 130.595 8.2263V4.9143C130.595 4.4503 130.747 4.1143 131.051 3.9063C131.371 3.6983 131.739 3.5943 132.155 3.5943C132.571 3.5943 132.931 3.6983 133.235 3.9063C133.555 4.1143 133.715 4.4503 133.715 4.9143V8.2263ZM145.187 9.5463C145.571 9.5463 145.851 9.6743 146.027 9.9303C146.203 10.1863 146.291 10.4983 146.291 10.8663C146.291 11.2343 146.203 11.5543 146.027 11.8263C145.851 12.0823 145.571 12.2103 145.187 12.2103H142.931V22.1463C142.931 22.5943 142.771 22.9223 142.451 23.1303C142.147 23.3383 141.795 23.4423 141.395 23.4423C140.995 23.4423 140.635 23.3383 140.315 23.1303C140.011 22.9223 139.859 22.5943 139.859 22.1463V3.7623C139.859 3.3143 140.011 2.9863 140.315 2.7783C140.635 2.5703 140.995 2.4663 141.395 2.4663C141.795 2.4663 142.147 2.5703 142.451 2.7783C142.771 2.9863 142.931 3.3143 142.931 3.7623V9.5463H145.187ZM148.383 10.9863C148.383 8.6023 148.863 6.7943 149.823 5.5623C150.783 4.3143 152.231 3.6903 154.167 3.6903C156.103 3.6903 157.551 4.3143 158.511 5.5623C159.471 6.7943 159.951 8.6023 159.951 10.9863C159.951 13.3703 159.471 15.1863 158.511 16.4343C157.551 17.6663 156.103 18.2823 154.167 18.2823C152.231 18.2823 150.783 17.6663 149.823 16.4343C148.863 15.1863 148.383 13.3703 148.383 10.9863ZM156.999 10.9863C156.999 9.4663 156.791 8.3143 156.375 7.5303C155.959 6.7463 155.223 6.3543 154.167 6.3543C153.111 6.3543 152.375 6.7463 151.959 7.5303C151.543 8.3143 151.335 9.4663 151.335 10.9863C151.335 12.5063 151.543 13.6583 151.959 14.4423C152.375 15.2263 153.111 15.6183 154.167 15.6183C155.223 15.6183 155.959 15.2263 156.375 14.4423C156.791 13.6583 156.999 12.5063 156.999 10.9863ZM166.047 22.1463C166.047 22.5943 165.887 22.9223 165.567 23.1303C165.263 23.3383 164.903 23.4423 164.487 23.4423C164.087 23.4423 163.727 23.3383 163.407 23.1303C163.103 22.9223 162.951 22.5943 162.951 22.1463V3.7623C162.951 3.3143 163.103 2.9863 163.407 2.7783C163.727 2.5703 164.087 2.4663 164.487 2.4663C164.903 2.4663 165.263 2.5703 165.567 2.7783C165.887 2.9863 166.047 3.3143 166.047 3.7623V22.1463ZM175.338 8.5863H186.066C186.434 8.5863 186.706 8.7143 186.882 8.9703C187.058 9.2263 187.146 9.5143 187.146 9.8343C187.146 10.1543 187.058 10.4423 186.882 10.6983C186.706 10.9543 186.434 11.0823 186.066 11.0823H175.338V12.7383C175.338 13.1063 175.522 13.2903 175.89 13.2903H186.666C187.034 13.2903 187.306 13.4183 187.482 13.6743C187.658 13.9303 187.746 14.2343 187.746 14.5863C187.746 14.9383 187.658 15.2423 187.482 15.4983C187.306 15.7543 187.034 15.8823 186.666 15.8823H174.378C173.61 15.8823 173.074 15.7383 172.77 15.4503C172.482 15.1623 172.338 14.6423 172.338 13.8903V5.8023C172.338 5.0503 172.482 4.5303 172.77 4.2423C173.074 3.9543 173.61 3.8103 174.378 3.8103H186.306C186.674 3.8103 186.946 3.9383 187.122 4.1943C187.298 4.4503 187.386 4.7543 187.386 5.1063C187.386 5.4583 187.298 5.7623 187.122 6.0183C186.946 6.2743 186.674 6.4023 186.306 6.4023H175.89C175.522 6.4023 175.338 6.5863 175.338 6.9543V8.5863ZM170.826 21.4743C170.458 21.4743 170.186 21.3463 170.01 21.0903C169.834 20.8343 169.746 20.5303 169.746 20.1783C169.746 19.8103 169.834 19.4983 170.01 19.2423C170.186 18.9863 170.458 18.8583 170.826 18.8583H188.97C189.338 18.8583 189.61 18.9863 189.786 19.2423C189.962 19.4983 190.05 19.8103 190.05 20.1783C190.05 20.5303 189.962 20.8343 189.786 21.0903C189.61 21.3463 189.338 21.4743 188.97 21.4743H170.826Z" fill="#0A187C"/>
<rect width="4" height="24.2603" rx="2" transform="matrix(-1 0 0 1 58.5234 1.53394)" fill="#1425A4"/>
<rect x="-0.382283" y="-0.382283" width="3.23543" height="12.8316" rx="1.61772" transform="matrix(1.19249e-08 -1 -1 -1.19249e-08 67.3551 4.76937)" fill="#A766DA" stroke="#A766DA" stroke-width="0.764567"/>
<path opacity="0.8" fill-rule="evenodd" clip-rule="evenodd" d="M56.5234 1.53394C57.628 1.53394 58.5234 2.42937 58.5234 3.53394V5.53394H56.5235C55.4189 5.53394 54.5235 4.6385 54.5235 3.53394C54.5235 2.42939 55.4189 1.53397 56.5234 1.53394Z" fill="#6B51AA"/>
<rect width="5.37744" height="5.37744" rx="2.68872" transform="matrix(1.19249e-08 -1 -1 -1.19249e-08 65.6812 14.7495)" fill="#1425A4"/>
<rect width="4" height="26.0428" rx="2" transform="matrix(0.901572 0.432629 0.432629 -0.901572 66.8149 24.2358)" fill="#1425A4"/>
<rect x="90.8291" y="24.0566" width="3.23543" height="25.2783" rx="1.61772" transform="rotate(154.365 90.8291 24.0566)" fill="#A766DA" stroke="#A766DA" stroke-width="0.764567"/>
<path opacity="0.8" fill-rule="evenodd" clip-rule="evenodd" d="M79.077 1.42505C78.805 1.43269 78.5302 1.49627 78.2691 1.62158C77.2732 2.09945 76.8533 3.29414 77.3312 4.28998L79.077 7.92821L80.8229 4.28998C81.3007 3.29414 80.8808 2.09945 79.885 1.62158C79.6238 1.49627 79.349 1.43269 79.077 1.42505Z" fill="#6B51AA"/>
<rect x="0.796143" y="1.53418" width="4" height="24.2603" rx="2" fill="#1425A4"/>
<rect width="4" height="24.2603" rx="2" transform="matrix(-1 0 0 1 24.207 1.53394)" fill="#1425A4"/>
<rect x="0.534913" y="3.22295" width="3.23543" height="19.4563" rx="1.61772" transform="rotate(-36.6598 0.534913 3.22295)" fill="#A766DA" stroke="#A766DA" stroke-width="0.764567"/>
<path fill-rule="evenodd" clip-rule="evenodd" d="M4.51375 2.49213C4.69169 2.7911 4.79389 3.1404 4.79389 3.51357V9.56799L1.19188 4.72843C0.53238 3.84235 0.716061 2.58941 1.60214 1.92991C2.48822 1.27042 3.74116 1.4541 4.40065 2.34018L4.51375 2.49213Z" fill="#6B51AA"/>
<rect x="-0.534913" y="0.0784186" width="3.23543" height="19.4563" rx="1.61772" transform="matrix(-0.802195 -0.597063 -0.597063 0.802195 24.0591 2.84067)" fill="#A766DA" stroke="#A766DA" stroke-width="0.764567"/>
<path fill-rule="evenodd" clip-rule="evenodd" d="M12.5017 13.2515L14.1013 15.4006C14.7608 16.2867 14.5771 17.5397 13.691 18.1991C13.3333 18.4654 12.9158 18.5942 12.5017 18.5949C12.0876 18.5942 11.6701 18.4654 11.3123 18.1991C10.4263 17.5397 10.2426 16.2867 10.9021 15.4006L12.5017 13.2515Z" fill="#8C51B9"/>
<path fill-rule="evenodd" clip-rule="evenodd" d="M20.4894 2.49213C20.3115 2.7911 20.2093 3.1404 20.2093 3.51357V9.56799L23.8113 4.72843C24.4708 3.84235 24.2871 2.58941 23.401 1.92991C22.515 1.27042 21.262 1.4541 20.6025 2.34018L20.4894 2.49213Z" fill="#6B51AA"/>
<path d="M48.3395 15.5944C49.4134 15.8417 50.5024 15.1696 50.5678 14.0695C50.6342 12.9516 50.5432 11.8266 50.2948 10.7278C49.8992 8.97803 49.1145 7.33982 47.9989 5.93488C46.8834 4.52994 45.4656 3.39437 43.851 2.6125C42.2364 1.83063 40.4663 1.42256 38.6724 1.41859C36.8784 1.41463 35.1066 1.81486 33.4885 2.58958C31.8705 3.36429 30.4477 4.49358 29.3259 5.89357C28.2042 7.29356 27.4122 8.92828 27.0089 10.6763C26.7556 11.774 26.6597 12.8986 26.7211 14.0168C26.7816 15.1171 27.8676 15.7941 28.9426 15.5515C30.0176 15.3088 30.6653 14.2328 30.6972 13.1312C30.7124 12.6083 30.7791 12.0865 30.8975 11.5735C31.166 10.4096 31.6934 9.32115 32.4403 8.38898C33.1872 7.4568 34.1345 6.70487 35.2119 6.18903C36.2893 5.67319 37.469 5.40669 38.6635 5.40934C39.8581 5.41198 41.0366 5.68369 42.1117 6.20429C43.1868 6.72489 44.1308 7.48101 44.8736 8.41648C45.6164 9.35195 46.1389 10.4427 46.4023 11.6078C46.5184 12.1213 46.5828 12.6434 46.5956 13.1664C46.6226 14.2681 47.2656 15.347 48.3395 15.5944Z" fill="#A766DA"/>
<path d="M28.8886 11.4954C27.799 11.287 26.7287 12.0042 26.7056 13.1134C26.6828 14.2141 26.8122 15.3159 27.0927 16.3871C27.5435 18.1083 28.3731 19.7071 29.5211 21.0665C30.669 22.426 32.1062 23.5118 33.7276 24.2445C35.349 24.9772 37.1136 25.3384 38.8925 25.3017C40.6714 25.265 42.4196 24.8312 44.0094 24.0321C45.5992 23.233 46.9903 22.0888 48.0811 20.6831C49.1719 19.2775 49.9349 17.6458 50.3142 15.9074C50.5502 14.8255 50.634 13.7193 50.5657 12.6205C50.4969 11.5133 49.3978 10.8408 48.3177 11.094C47.2376 11.3472 46.5948 12.436 46.5691 13.5451C46.5574 14.0502 46.4974 14.5544 46.3891 15.051C46.1374 16.2046 45.6311 17.2874 44.9072 18.2202C44.1833 19.153 43.2601 19.9123 42.2052 20.4426C41.1502 20.9729 39.9901 21.2607 38.8096 21.2851C37.6291 21.3095 36.458 21.0698 35.3821 20.5835C34.3061 20.0973 33.3523 19.3768 32.5906 18.4746C31.8288 17.5725 31.2782 16.5115 30.9791 15.3693C30.8503 14.8776 30.7695 14.3763 30.737 13.8722C30.6655 12.7651 29.9783 11.7038 28.8886 11.4954Z" fill="#1425A4"/>
<circle cx="28.6997" cy="13.0961" r="1.98877" transform="rotate(4.73546 28.6997 13.0961)" fill="#6B51AA"/>
<circle cx="48.5717" cy="12.7564" r="1.99655" transform="rotate(4.73546 48.5717 12.7564)" fill="#6B51AA"/>
</svg>
