<svg width="190" height="54" viewBox="0 0 190 54" fill="none" xmlns="http://www.w3.org/2000/svg">
<g clip-path="url(#clip0_87_2039)">
<path d="M76.7147 37.7207V44.6503H75.6002V39.0752L73.7924 44.6503H72.7192L70.9113 39.0752V44.6503H69.7969V37.7207H71.5057L73.2558 43.1224L75.0059 37.7207H76.7147Z" fill="#999999"/>
<path d="M79.4558 38.2659C79.4558 38.4559 79.3815 38.621 79.2412 38.7697C79.1009 38.9101 78.9275 38.9845 78.7294 38.9845C78.5313 38.9845 78.3579 38.9101 78.2176 38.7697C78.0772 38.6293 78.0029 38.4641 78.0029 38.2659C78.0029 38.0677 78.0772 37.8942 78.2176 37.7538C78.3579 37.6134 78.5313 37.5391 78.7294 37.5391C78.9275 37.5391 79.1009 37.6134 79.2412 37.7538C79.3815 37.8942 79.4558 38.0677 79.4558 38.2659ZM78.1763 44.6504V39.67H79.3072V44.6504H78.1763Z" fill="#999999"/>
<path d="M81.8903 42.1479V44.6505H80.7676V39.67H81.849V40.339C81.9811 40.1078 82.171 39.9178 82.4269 39.7691C82.6745 39.6205 82.9469 39.5461 83.2441 39.5461C83.8302 39.5461 84.3008 39.7444 84.6557 40.1491C85.0107 40.5455 85.1841 41.0824 85.1841 41.7514V44.6422H84.0531V42.0405C84.0531 41.5119 83.9706 41.1154 83.7972 40.8594C83.6239 40.6033 83.3597 40.4795 83.0047 40.4795C82.8149 40.4795 82.6415 40.5373 82.4599 40.6612C82.2865 40.7851 82.1544 40.9502 82.0554 41.165C81.9398 41.4128 81.882 41.7349 81.882 42.1396L81.8903 42.1479Z" fill="#999999"/>
<path d="M87.8924 38.2659C87.8924 38.4559 87.8181 38.621 87.6777 38.7697C87.5374 38.9101 87.364 38.9845 87.1659 38.9845C86.9678 38.9845 86.7944 38.9101 86.6541 38.7697C86.5138 38.6293 86.4395 38.4641 86.4395 38.2659C86.4395 38.0677 86.5138 37.8942 86.6541 37.7538C86.7944 37.6134 86.9678 37.5391 87.1659 37.5391C87.364 37.5391 87.5374 37.6134 87.6777 37.7538C87.8181 37.8942 87.8924 38.0677 87.8924 38.2659ZM86.6128 44.6504V39.67H87.7438V44.6504H86.6128Z" fill="#999999"/>
<path d="M88.7426 43.7254L89.4443 42.9986C89.6424 43.2711 89.8653 43.4776 90.0965 43.6345C90.3276 43.775 90.5753 43.841 90.8394 43.841C91.0871 43.841 91.3017 43.7915 91.4751 43.6841C91.6484 43.585 91.7392 43.4446 91.7392 43.2711C91.7392 43.0977 91.6567 42.9655 91.4833 42.8664C91.3182 42.7673 91.1119 42.6765 90.8807 42.5939C90.6083 42.5113 90.3276 42.4122 90.0469 42.3048C89.659 42.1644 89.3783 41.9909 89.2049 41.7679C89.0233 41.5449 88.9325 41.2971 88.9325 41.0246C88.9325 40.6116 89.1224 40.2647 89.5104 39.9756C89.8901 39.6866 90.3441 39.5461 90.8725 39.5461C91.4255 39.5461 91.8796 39.6783 92.2346 39.9426C92.4162 40.083 92.5565 40.2565 92.6638 40.4629L91.9704 41.1402C91.8796 40.9833 91.7723 40.8511 91.6402 40.752C91.4255 40.562 91.1449 40.4629 90.8147 40.4629C90.6248 40.4629 90.4597 40.5125 90.3111 40.6033C90.1708 40.7025 90.0965 40.8098 90.0965 40.942C90.0965 41.0907 90.179 41.2145 90.3359 41.3137C90.4927 41.4128 90.7321 41.5119 91.0458 41.6027C91.1614 41.6358 91.2852 41.6771 91.4338 41.7184C91.9209 41.8753 92.2841 42.0818 92.5317 42.3378C92.7794 42.5939 92.9032 42.8912 92.9032 43.2464C92.9032 43.6593 92.7051 44.0145 92.3088 44.3118C91.9126 44.6092 91.4008 44.7661 90.7899 44.7661C90.2781 44.7661 89.8158 44.6505 89.4196 44.4109C89.1554 44.254 88.9242 44.0227 88.7344 43.7254H88.7426Z" fill="#999999"/>
<path d="M95.3464 38.0676V39.67H96.4278V40.5867H95.3464V43.1224C95.3464 43.3619 95.4042 43.5271 95.5197 43.6179C95.6353 43.7088 95.8004 43.7501 96.015 43.7501H96.436V44.6586H95.7509C95.2143 44.6586 94.8263 44.5347 94.5786 44.3035C94.331 44.064 94.2072 43.7088 94.2072 43.238V40.595H93.3486V39.6782H94.2072V38.0759H95.3464V38.0676Z" fill="#999999"/>
<path d="M97.4512 44.6504V39.67H98.5161V40.4133C98.6812 40.1656 98.8793 39.9756 99.1187 39.8434C99.3994 39.67 99.7378 39.5874 100.126 39.5874H100.2V40.6033H100.085C99.614 40.6033 99.2425 40.7437 98.9619 41.0328C98.7059 41.3136 98.5739 41.7431 98.5739 42.3378V44.6504H97.4512Z" fill="#999999"/>
<path d="M102.661 44.4604L100.704 39.6699H101.876L103.23 43.0728L104.576 39.6699H105.74L102.966 46.5748H101.81L102.669 44.4604H102.661Z" fill="#999999"/>
<path d="M111.411 44.7742C110.684 44.7742 110.065 44.5264 109.545 44.0226C109.033 43.5188 108.777 42.9076 108.777 42.1725C108.777 41.4374 109.033 40.8179 109.545 40.3141C110.057 39.8103 110.676 39.5625 111.411 39.5625C112.145 39.5625 112.773 39.8185 113.276 40.3141C113.788 40.8179 114.044 41.4374 114.044 42.1725C114.044 42.9076 113.788 43.527 113.276 44.0226C112.765 44.5264 112.145 44.7742 111.411 44.7742ZM111.411 43.8326C111.823 43.8326 112.17 43.6757 112.467 43.3618C112.765 43.048 112.913 42.6515 112.913 42.1642C112.913 41.6769 112.765 41.2887 112.467 40.9666C112.17 40.6445 111.823 40.4876 111.411 40.4876C110.998 40.4876 110.66 40.6445 110.362 40.9666C110.065 41.2887 109.917 41.6852 109.917 42.1642C109.917 42.6433 110.065 43.048 110.362 43.3618C110.66 43.6757 111.006 43.8326 111.411 43.8326Z" fill="#999999"/>
<path d="M115.34 39.1413C115.34 38.6788 115.473 38.3236 115.728 38.0841C115.993 37.8446 116.389 37.7207 116.925 37.7207H117.47V38.6292H117.14C116.925 38.6292 116.769 38.6705 116.645 38.7614C116.529 38.8522 116.471 39.0174 116.471 39.257V39.6699H117.462V40.5867H116.471V44.6503H115.332V40.5867H114.474V39.6699H115.332V39.1413H115.34Z" fill="#999999"/>
<path d="M123.794 44.6008H122.63V37.6711H127.022V38.6375H123.794V40.6445H126.931V41.6026H123.794V44.6008Z" fill="#999999"/>
<path d="M130.505 44.7166C129.779 44.7166 129.159 44.4688 128.648 43.965C128.136 43.4611 127.88 42.8499 127.88 42.1149C127.88 41.3798 128.136 40.7603 128.648 40.2565C129.159 39.7527 129.779 39.5049 130.505 39.5049C131.231 39.5049 131.867 39.7527 132.371 40.2565C132.882 40.7603 133.138 41.3798 133.138 42.1149C133.138 42.8499 132.882 43.4694 132.371 43.965C131.859 44.4688 131.24 44.7166 130.505 44.7166ZM130.505 43.7833C130.918 43.7833 131.264 43.6263 131.562 43.3125C131.859 42.9986 132.007 42.6022 132.007 42.1149C132.007 41.6276 131.859 41.2394 131.562 40.9172C131.264 40.5951 130.918 40.4382 130.505 40.4382C130.092 40.4382 129.754 40.6034 129.457 40.9172C129.159 41.2394 129.011 41.6358 129.011 42.1149C129.011 42.5939 129.159 42.9986 129.457 43.3125C129.754 43.6263 130.101 43.7833 130.505 43.7833Z" fill="#999999"/>
<path d="M134.195 44.6009V39.6204H135.26V40.3638C135.425 40.116 135.632 39.9343 135.863 39.7939C136.144 39.6204 136.482 39.5378 136.87 39.5378H136.953V40.5537H136.837C136.366 40.5537 135.995 40.6942 135.714 40.9832C135.458 41.2641 135.326 41.6935 135.326 42.2882V44.6009H134.204H134.195Z" fill="#999999"/>
<path d="M138.555 42.6104C138.621 42.916 138.761 43.1638 138.984 43.3537C139.297 43.6428 139.718 43.7915 140.247 43.7915C140.8 43.7915 141.312 43.5932 141.791 43.1885L142.129 44.0227C141.592 44.4853 140.957 44.7165 140.222 44.7165C139.38 44.7165 138.695 44.477 138.167 43.998C137.638 43.5189 137.374 42.8995 137.374 42.1231C137.374 41.3467 137.605 40.7355 138.076 40.2399C138.546 39.7444 139.157 39.4966 139.908 39.4966C140.66 39.4966 141.262 39.7444 141.733 40.2317C142.203 40.719 142.443 41.3302 142.443 42.0487C142.443 42.247 142.426 42.4369 142.393 42.6021H138.563L138.555 42.6104ZM138.538 41.7184H141.303C141.287 41.3962 141.155 41.0989 140.899 40.8263C140.643 40.5538 140.313 40.4216 139.917 40.4216C139.52 40.4216 139.165 40.5703 138.901 40.8594C138.711 41.0824 138.588 41.3632 138.546 41.7184H138.538Z" fill="#999999"/>
<path d="M144.795 38.2163C144.795 38.4063 144.72 38.5797 144.58 38.7202C144.44 38.8606 144.266 38.9349 144.068 38.9349C143.87 38.9349 143.697 38.8606 143.556 38.7202C143.416 38.5797 143.342 38.4146 143.342 38.2163C143.342 38.0181 143.416 37.8447 143.556 37.7042C143.697 37.5638 143.87 37.4895 144.068 37.4895C144.266 37.4895 144.44 37.5638 144.58 37.7042C144.72 37.8447 144.795 38.0181 144.795 38.2163ZM143.515 44.6009V39.6204H144.646V44.6009H143.515Z" fill="#999999"/>
<path d="M148.146 46.5832C147.387 46.5832 146.735 46.3932 146.19 46.0133L146.528 45.1047C147.032 45.4764 147.569 45.6581 148.146 45.6581C148.65 45.6581 149.046 45.5177 149.335 45.2286C149.624 44.9395 149.764 44.6257 149.764 44.2623V43.9649C149.352 44.4605 148.832 44.7083 148.204 44.7083C147.478 44.7083 146.883 44.4522 146.438 43.9319C145.984 43.4198 145.761 42.8086 145.761 42.1066C145.761 41.4045 145.984 40.7933 146.438 40.273C146.883 39.7526 147.478 39.4966 148.204 39.4966C148.79 39.4966 149.302 39.7361 149.723 40.2151V39.6205H150.854V43.7584C150.854 44.7083 150.615 45.4103 150.152 45.8811C149.682 46.3519 149.013 46.5832 148.146 46.5832ZM149.715 42.4452C149.731 42.2222 149.731 41.9992 149.715 41.7927C149.674 41.4128 149.533 41.0989 149.294 40.8511C149.03 40.5703 148.7 40.4382 148.312 40.4382C147.874 40.4382 147.527 40.6033 147.28 40.9255C147.024 41.2476 146.9 41.6523 146.9 42.1313C146.9 42.6104 147.024 43.0151 147.28 43.3372C147.536 43.6593 147.874 43.8163 148.312 43.8163C148.7 43.8163 149.03 43.6758 149.294 43.4033C149.533 43.1472 149.674 42.8416 149.715 42.47V42.4452Z" fill="#999999"/>
<path d="M153.355 42.0983V44.6009H152.232V39.6205H153.314V40.2895C153.446 40.0582 153.636 39.8683 153.892 39.7196C154.139 39.5709 154.412 39.4966 154.701 39.4966C155.295 39.4966 155.766 39.6948 156.121 40.0995C156.476 40.5042 156.649 41.0328 156.649 41.7018V44.5926H155.518V41.9909C155.518 41.4623 155.435 41.0659 155.262 40.8098C155.089 40.5538 154.825 40.4299 154.47 40.4299C154.288 40.4299 154.106 40.4877 153.925 40.6116C153.751 40.7355 153.611 40.9007 153.52 41.1154C153.405 41.3632 153.347 41.6853 153.347 42.09L153.355 42.0983Z" fill="#999999"/>
<path d="M164.293 37.6711L166.72 44.6008H165.54L164.847 42.5607H162.188L161.495 44.6008H160.314L162.725 37.6711H164.302H164.293ZM162.51 41.5944H164.516L163.526 38.6788L162.51 41.5944Z" fill="#999999"/>
<path d="M167.522 39.0918C167.522 38.6292 167.654 38.2741 167.91 38.0346C168.174 37.795 168.57 37.6711 169.107 37.6711H169.651V38.5797H169.321C169.107 38.5797 168.95 38.6292 168.834 38.7118C168.719 38.8027 168.661 38.9679 168.661 39.2074V39.6204H169.651V40.5372H168.661V44.6008H167.522V40.5372H166.663V39.6204H167.522V39.0918Z" fill="#999999"/>
<path d="M171.203 39.0918C171.203 38.6292 171.335 38.2741 171.599 38.0346C171.864 37.795 172.26 37.6711 172.797 37.6711H173.341V38.5797H173.011C172.796 38.5797 172.631 38.6292 172.516 38.7118C172.4 38.8027 172.342 38.9679 172.342 39.2074V39.6204H173.333V40.5372H172.342V44.6008H171.203V40.5372H170.345V39.6204H171.203V39.0918Z" fill="#999999"/>
<path d="M176.346 41.388H177.518C177.518 41.0659 177.394 40.8181 177.138 40.6529C176.883 40.4878 176.519 40.4134 176.04 40.4134H176.007C175.562 40.4134 175.083 40.5208 174.579 40.7355L174.29 39.8518C174.81 39.6288 175.388 39.5131 176.016 39.5049H176.032C176.866 39.5049 177.51 39.6618 177.956 39.9839C178.401 40.306 178.624 40.8181 178.624 41.5202V44.6009H177.551V44.0558C177.337 44.2706 177.081 44.4275 176.767 44.5431C176.462 44.6588 176.148 44.7166 175.826 44.7166C175.231 44.7166 174.744 44.5596 174.381 44.2458C174.01 43.9319 173.828 43.5437 173.828 43.0895C173.828 42.5774 174.059 42.1562 174.513 41.8258C174.934 41.5367 175.537 41.388 176.321 41.388H176.346ZM176.04 43.8246C176.329 43.8246 176.618 43.7502 176.907 43.6098C177.196 43.4694 177.394 43.3042 177.526 43.1142V42.2718H176.519C175.95 42.2718 175.553 42.3461 175.331 42.4948C175.108 42.66 175 42.8582 175 43.0895C175 43.3042 175.091 43.4777 175.281 43.6181C175.463 43.7585 175.719 43.8246 176.049 43.8246H176.04Z" fill="#999999"/>
<path d="M181.348 38.2163C181.348 38.4063 181.282 38.5797 181.134 38.7202C180.993 38.8606 180.82 38.9349 180.622 38.9349C180.424 38.9349 180.25 38.8606 180.11 38.7202C179.97 38.5797 179.896 38.4146 179.896 38.2163C179.896 38.0181 179.97 37.8447 180.11 37.7042C180.25 37.5638 180.424 37.4895 180.622 37.4895C180.82 37.4895 180.993 37.5638 181.134 37.7042C181.274 37.8447 181.348 38.0181 181.348 38.2163ZM180.069 44.6009V39.6204H181.2V44.6009H180.069Z" fill="#999999"/>
<path d="M182.661 44.6009V39.6204H183.726V40.3638C183.891 40.116 184.098 39.9343 184.329 39.7939C184.609 39.6204 184.948 39.5378 185.336 39.5378H185.41V40.5537H185.295C184.824 40.5537 184.452 40.6942 184.172 40.9832C183.916 41.2641 183.784 41.6935 183.784 42.2882V44.6009H182.661Z" fill="#999999"/>
<path d="M185.831 43.6758L186.541 42.949C186.739 43.2216 186.954 43.4281 187.193 43.585C187.424 43.7254 187.672 43.7915 187.936 43.7915C188.184 43.7915 188.398 43.7419 188.58 43.6345C188.753 43.5272 188.844 43.395 188.844 43.2216C188.844 43.0481 188.762 42.916 188.588 42.8169C188.415 42.7178 188.217 42.6269 187.986 42.5443C187.713 42.4617 187.441 42.3626 187.152 42.2552C186.764 42.1148 186.483 41.9331 186.31 41.7184C186.128 41.5036 186.037 41.2558 186.037 40.975C186.037 40.562 186.227 40.2152 186.615 39.9261C186.995 39.637 187.449 39.4966 187.977 39.4966C188.53 39.4966 188.985 39.6287 189.339 39.893C189.521 40.0334 189.661 40.2069 189.769 40.4051L189.075 41.0824C188.985 40.9255 188.877 40.7933 188.745 40.6942C188.53 40.5042 188.25 40.4051 187.92 40.4051C187.73 40.4051 187.556 40.4547 187.416 40.5455C187.276 40.6446 187.201 40.7603 187.201 40.8924C187.201 41.0411 187.284 41.165 187.441 41.2641C187.598 41.3632 187.837 41.4623 188.142 41.5532C188.258 41.5862 188.382 41.6275 188.53 41.6688C189.018 41.8257 189.381 42.0322 189.628 42.2883C189.876 42.5443 190 42.8416 190 43.1885C190 43.6015 189.802 43.9567 189.406 44.254C189.009 44.5596 188.506 44.7083 187.887 44.7083C187.367 44.7083 186.912 44.5926 186.516 44.3531C186.252 44.1962 186.021 43.9649 185.831 43.6676V43.6758Z" fill="#999999"/>
<path d="M41.6719 25.7694C36.983 22.5812 30.9815 23.8779 27.828 28.6767C25.1946 32.6825 21.2239 33.178 19.6802 33.178C14.6694 33.178 11.2352 29.6513 10.2198 26.0006C10.2198 26.0006 10.2033 25.9345 10.1951 25.9015C10.1868 25.8602 10.1703 25.8189 10.1621 25.7776C9.76581 24.2579 9.66675 23.5228 9.66675 21.9039C9.66675 13.1738 18.6236 3.44417 31.5181 3.44417C44.4126 3.44417 52.288 13.5041 54.2279 19.0958C54.1949 18.9966 54.1619 18.8975 54.1289 18.7984C50.381 7.86296 40.0209 0 27.8115 0C12.457 0 0 12.4552 0 27.8259C0 41.5613 9.90615 53.3227 23.6427 53.3227C34.5972 53.3227 41.9608 47.1777 45.3372 38.7036C47.1946 34.0701 45.882 28.6271 41.6719 25.7694Z" fill="#999999"/>
<path d="M54.4015 19.6408C52.7753 14.1896 45.164 3.44409 31.5183 3.44409C18.6156 3.44409 9.66699 13.1654 9.66699 21.9039C9.66699 23.5227 9.76605 24.2495 10.1623 25.7775C9.9972 25.1085 9.90639 24.4395 9.90639 23.7953C9.90639 14.7017 19.0118 8.39974 28.3649 8.39974C41.0282 8.39974 51.2976 18.6744 51.2976 31.3444C51.2976 41.2804 45.5851 49.8785 37.2804 54.0082C47.979 50.1345 55.6233 39.8846 55.6233 27.8424C55.6233 24.9929 55.2435 22.482 54.4015 19.649V19.6408Z" fill="#999999"/>
<path d="M82.972 25.8438V28.0903H69.1777V25.8438H74.6756V21.4498C74.3207 21.3754 73.9822 21.2681 73.6603 21.1277C72.9256 20.8221 72.2899 20.4174 71.7698 19.93C71.225 19.4097 70.804 18.8068 70.4903 18.1295C70.1766 17.4522 70.0115 16.7171 70.0115 15.9325C70.0115 15.1479 70.1683 14.4375 70.4903 13.7603C70.804 13.083 71.2333 12.4801 71.7698 11.9597C72.2899 11.4642 72.9173 11.0677 73.6438 10.7704C74.3702 10.473 75.1297 10.3161 75.9304 10.3161C76.7312 10.3161 77.4906 10.4648 78.1923 10.7704C78.9023 11.0677 79.5214 11.4724 80.0662 11.9597C80.6028 12.4883 81.0321 13.083 81.3458 13.7603C81.6595 14.4375 81.8163 15.1644 81.8163 15.9325C81.8163 16.7006 81.6595 17.4522 81.3458 18.1295C81.0321 18.8068 80.6028 19.4097 80.0662 19.93C79.5297 20.4256 78.9023 20.8221 78.1923 21.1277C77.8539 21.2681 77.4906 21.3754 77.1027 21.4498V25.8438H82.972ZM79.2903 15.9242C79.2903 15.4782 79.1995 15.0487 79.0261 14.644C78.8445 14.2393 78.6051 13.8676 78.2996 13.5455C77.9942 13.2564 77.631 13.0169 77.2265 12.827C76.8137 12.6452 76.3845 12.5461 75.9222 12.5461C75.4599 12.5461 75.0224 12.637 74.6179 12.827C74.2134 13.0087 73.8419 13.2482 73.5199 13.5455C73.2227 13.8676 72.9916 14.2393 72.8017 14.644C72.6119 15.0487 72.5211 15.4782 72.5211 15.9242C72.5211 16.3702 72.6119 16.8245 72.8017 17.2292C72.9833 17.6339 73.2227 18.0056 73.5199 18.3277C73.8419 18.6251 74.2051 18.8563 74.6179 19.0463C75.0306 19.228 75.4599 19.3271 75.9222 19.3271C76.3845 19.3271 76.8137 19.2363 77.2265 19.0463C77.6392 18.8646 77.9942 18.6251 78.2996 18.3277C78.6051 18.0056 78.8445 17.6422 79.0261 17.2292C79.2077 16.8245 79.2903 16.3868 79.2903 15.9242ZM84.5158 9.52319H87.0583V30.1469H84.5158V9.52319Z" fill="#999999"/>
<path d="M97.0137 26.3725V19.9714H99.4407V26.3725H102.883V19.9714H105.335V26.3725H111.46V28.619H92.5146V26.3725H97.0219H97.0137ZM107.366 22.7466V12.8518H94.0336V10.564H109.933V22.7466H107.366Z" fill="#999999"/>
<path d="M116.042 22.5483H134.996V24.8113H126.79V30.1304H124.223V24.8113H116.042V22.5483ZM120.087 12.4718H130.926V9.86182H133.469V19.7814H117.569V9.86182H120.087V12.4718ZM130.926 14.6853H120.087V17.5265H130.926V14.6853Z" fill="#999999"/>
</g>
<defs>
<clipPath id="clip0_87_2039">
<rect width="190" height="54" fill="white"/>
</clipPath>
</defs>
</svg>
