<svg width="342" height="70" viewBox="0 0 342 70" fill="none" xmlns="http://www.w3.org/2000/svg">
<path d="M147.986 24.0052C147.986 25.8422 147.615 27.1125 146.872 27.8161C146.168 28.5196 144.879 28.8714 143.002 28.8714H116.268C114.392 28.8714 113.082 28.5196 112.34 27.8161C111.636 27.1125 111.284 25.8422 111.284 24.0052V9.69977C111.284 8.68353 111.656 7.92136 112.398 7.41324C113.18 6.90513 114.02 6.65107 114.919 6.65107C115.857 6.65107 116.698 6.90513 117.44 7.41324C118.222 7.92136 118.613 8.68353 118.613 9.69977V12.9244H140.657V9.69977C140.657 8.68353 141.029 7.92136 141.771 7.41324C142.553 6.90513 143.393 6.65107 144.292 6.65107C145.23 6.65107 146.071 6.90513 146.813 7.41324C147.595 7.92136 147.986 8.68353 147.986 9.69977V24.0052ZM139.778 22.774C140.364 22.774 140.657 22.4809 140.657 21.8946V19.0218H118.613V21.8946C118.613 22.4809 118.906 22.774 119.492 22.774H139.778ZM107.473 39.3073C106.574 39.3073 105.91 38.9946 105.48 38.3693C105.05 37.7439 104.835 37.0208 104.835 36.2C104.835 35.3401 105.05 34.5975 105.48 33.9721C105.91 33.3467 106.574 33.034 107.473 33.034H151.797C152.696 33.034 153.36 33.3467 153.79 33.9721C154.22 34.5975 154.435 35.3401 154.435 36.2C154.435 37.0208 154.22 37.7439 153.79 38.3693C153.36 38.9946 152.696 39.3073 151.797 39.3073H134.15V45.6392C134.15 46.6555 133.778 47.3981 133.036 47.8671C132.332 48.2971 131.453 48.512 130.397 48.512C129.381 48.512 128.502 48.2971 127.759 47.8671C127.055 47.3981 126.704 46.6555 126.704 45.6392V39.3073H107.473ZM146.403 53.261C147.302 53.261 147.966 53.5737 148.396 54.199C148.826 54.8244 149.041 55.5671 149.041 56.4269C149.041 57.2868 148.826 58.0295 148.396 58.6548C147.966 59.2802 147.302 59.5929 146.403 59.5929H116.15C114.274 59.5929 112.965 59.2411 112.222 58.5376C111.519 57.834 111.167 56.5637 111.167 54.7267V46.1083C111.167 45.0139 111.538 44.2126 112.281 43.7045C113.063 43.1964 113.962 42.9423 114.978 42.9423C115.955 42.9423 116.815 43.1964 117.558 43.7045C118.339 44.2126 118.73 45.0139 118.73 46.1083V51.9125C118.73 52.8115 119.18 53.261 120.079 53.261H146.403ZM179.303 15.504C179.303 17.2629 179.557 18.7677 180.065 20.0184C180.612 21.2692 181.511 22.4418 182.762 23.5362C184.052 24.6306 185.244 25.6077 186.338 26.4676C187.433 27.3275 188.429 28.0897 189.328 28.7541C190.149 29.3404 190.56 30.0635 190.56 30.9234C190.599 31.7442 190.345 32.5259 189.797 33.2686C189.367 33.8939 188.723 34.363 187.863 34.6756C187.003 34.9883 186.123 34.832 185.224 34.2066C184.521 33.6985 183.641 33.0536 182.586 32.2719C181.57 31.4511 180.495 30.5521 179.362 29.5749C177.993 28.4414 177.055 27.5816 176.547 26.9953C176.078 26.3699 175.766 25.7836 175.609 25.2364H175.551C175.472 25.5491 175.355 25.8813 175.199 26.2331C175.043 26.5458 174.808 26.8976 174.495 27.2884C174.222 27.6402 173.85 28.031 173.381 28.461C172.912 28.8909 172.326 29.3991 171.622 29.9853C169.356 31.9005 167.108 33.6594 164.88 35.2619C164.02 35.8873 163.141 36.0437 162.242 35.731C161.382 35.4183 160.737 34.9492 160.307 34.3239C159.799 33.6203 159.525 32.8191 159.486 31.9201C159.486 31.0211 159.936 30.2394 160.835 29.5749C162.125 28.6369 163.356 27.7184 164.528 26.8194C165.701 25.8813 166.932 24.8651 168.222 23.7707C169.473 22.6763 170.352 21.5037 170.86 20.253C171.408 19.0022 171.681 17.4974 171.681 15.7385V10.4619C171.681 9.32845 172.052 8.50765 172.795 7.99953C173.577 7.49141 174.476 7.23736 175.492 7.23736C176.508 7.23736 177.388 7.49141 178.13 7.99953C178.912 8.50765 179.303 9.32845 179.303 10.4619V15.504ZM189.27 22.2463C188.371 22.2463 187.706 21.9336 187.276 21.3083C186.846 20.6829 186.631 19.9403 186.631 19.0804C186.631 18.1814 186.846 17.4192 187.276 16.7939C187.706 16.1685 188.371 15.8558 189.27 15.8558H196.598V8.58582C196.598 7.49141 196.97 6.69015 197.712 6.18204C198.494 5.67392 199.373 5.41986 200.351 5.41986C201.289 5.41986 202.129 5.67392 202.872 6.18204C203.653 6.69015 204.044 7.49141 204.044 8.58582V34.3239C204.044 35.4183 203.653 36.2195 202.872 36.7277C202.129 37.2358 201.289 37.4898 200.351 37.4898C199.373 37.4898 198.494 37.2358 197.712 36.7277C196.97 36.2195 196.598 35.4183 196.598 34.3239V22.2463H189.27ZM196.54 47.3395C196.54 46.4405 196.09 45.991 195.191 45.991H170.215C169.316 45.991 168.652 45.6783 168.222 45.0529C167.792 44.4276 167.577 43.6849 167.577 42.8251C167.577 41.9652 167.792 41.2225 168.222 40.5972C168.652 39.9718 169.316 39.6591 170.215 39.6591H199.061C200.937 39.6591 202.227 40.0109 202.93 40.7144C203.673 41.418 204.044 42.6883 204.044 44.5253V57.365C204.044 58.4594 203.653 59.2607 202.872 59.7688C202.129 60.2769 201.269 60.531 200.292 60.531C199.315 60.531 198.435 60.2769 197.654 59.7688C196.911 59.2607 196.54 58.4594 196.54 57.365V47.3395ZM269.835 8.93759C270.734 8.93759 271.379 9.25028 271.77 9.87565C272.2 10.4619 272.415 11.185 272.415 12.0449C272.415 12.9048 272.2 13.6474 271.77 14.2728C271.379 14.8591 270.734 15.1522 269.835 15.1522H265.086V29.7508H270.069C270.968 29.7508 271.613 30.0635 272.004 30.6889C272.434 31.2752 272.649 31.9983 272.649 32.8582C272.649 33.718 272.434 34.4607 272.004 35.086C271.613 35.6723 270.968 35.9655 270.069 35.9655H235.478C234.579 35.9655 233.915 35.6723 233.485 35.086C233.094 34.4607 232.899 33.718 232.899 32.8582C232.899 31.9983 233.094 31.2752 233.485 30.6889C233.915 30.0635 234.579 29.7508 235.478 29.7508H240.462V15.1522H235.713C234.814 15.1522 234.15 14.8591 233.72 14.2728C233.329 13.6474 233.133 12.9048 233.133 12.0449C233.133 11.185 233.329 10.4619 233.72 9.87565C234.15 9.25028 234.814 8.93759 235.713 8.93759H269.835ZM247.732 29.7508H257.816V15.1522H247.732V29.7508ZM230.612 51.8539C229.713 51.8539 229.049 51.5412 228.619 50.9158C228.189 50.2905 227.974 49.5478 227.974 48.6879C227.974 47.828 228.189 47.0854 228.619 46.46C229.049 45.8347 229.713 45.522 230.612 45.522H249.022V32.6236H256.526V45.522H274.936C275.835 45.522 276.499 45.8347 276.929 46.46C277.359 47.0854 277.574 47.828 277.574 48.6879C277.574 49.5478 277.359 50.2905 276.929 50.9158C276.499 51.5412 275.835 51.8539 274.936 51.8539H230.612ZM284.619 12.3381C284.619 10.501 284.97 9.23074 285.674 8.52719C286.417 7.82365 287.726 7.47187 289.602 7.47187H307.836C308.695 7.47187 309.321 7.78456 309.712 8.40993C310.103 9.03531 310.298 9.73885 310.298 10.5206C310.298 11.3023 310.103 12.0058 309.712 12.6312C309.321 13.2566 308.695 13.5693 307.836 13.5693H293.296C292.397 13.5693 291.947 14.0188 291.947 14.9177V17.556H305.373C306.233 17.556 306.858 17.8687 307.249 18.4941C307.679 19.0804 307.894 19.7644 307.894 20.5461C307.894 21.3278 307.679 22.0314 307.249 22.6567C306.858 23.243 306.233 23.5362 305.373 23.5362H291.947V26.2331C291.947 27.1321 292.397 27.5816 293.296 27.5816C296.735 27.5816 299.96 27.5034 302.969 27.347C306.018 27.1516 308.969 26.8585 311.822 26.4676C312.721 26.3504 313.425 26.5653 313.933 27.1125C314.48 27.6206 314.793 28.2656 314.871 29.0473C314.949 29.8681 314.832 30.6303 314.519 31.3338C314.207 31.9983 313.62 32.3891 312.76 32.5064C311.549 32.6627 310.2 32.8191 308.715 32.9754C307.269 33.0927 305.608 33.2099 303.732 33.3272C301.855 33.4444 299.745 33.5422 297.4 33.6203C295.094 33.6594 292.494 33.679 289.602 33.679C287.726 33.679 286.417 33.3272 285.674 32.6236C284.97 31.9201 284.619 30.6498 284.619 28.8128V12.3381ZM319.737 22.4222H313.288C312.35 22.4222 311.666 22.1095 311.236 21.4842C310.806 20.8588 310.591 20.0966 310.591 19.1976C310.591 18.2987 310.806 17.5365 311.236 16.9111C311.666 16.2857 312.35 15.9731 313.288 15.9731H319.737V8.58582C319.737 7.49141 320.109 6.69015 320.851 6.18204C321.633 5.67392 322.512 5.41986 323.489 5.41986C324.428 5.41986 325.268 5.67392 326.011 6.18204C326.792 6.69015 327.183 7.49141 327.183 8.58582V31.3924C327.183 32.4868 326.792 33.2881 326.011 33.7962C325.268 34.3043 324.428 34.5584 323.489 34.5584C322.512 34.5584 321.633 34.3043 320.851 33.7962C320.109 33.2881 319.737 32.4868 319.737 31.3924V22.4222ZM322.2 36.7277C324.076 36.7277 325.366 37.0794 326.069 37.783C326.812 38.4865 327.183 39.7568 327.183 41.5938V46.2842C327.183 48.1212 326.812 49.3915 326.069 50.095C325.366 50.7986 324.076 51.1503 322.2 51.1503H299.921C299.334 51.1503 299.041 51.4435 299.041 52.0298V53.4369C299.041 54.0232 299.334 54.3163 299.921 54.3163H325.952C326.773 54.3163 327.379 54.6094 327.769 55.1957C328.16 55.782 328.356 56.4465 328.356 57.1891C328.356 57.9708 328.16 58.6548 327.769 59.2411C327.379 59.8274 326.773 60.1206 325.952 60.1206H296.755C294.879 60.1206 293.569 59.7688 292.827 59.0652C292.123 58.3617 291.771 57.0914 291.771 55.2544V50.5054C291.771 48.6684 292.123 47.3981 292.827 46.6946C293.569 45.991 294.879 45.6392 296.755 45.6392H319.034C319.62 45.6392 319.913 45.3461 319.913 44.7598V43.4113C319.913 42.8251 319.62 42.5319 319.034 42.5319H294.058C293.237 42.5319 292.631 42.2388 292.24 41.6525C291.849 41.0662 291.654 40.3822 291.654 39.6005C291.654 38.8578 291.849 38.1934 292.24 37.6071C292.631 37.0208 293.237 36.7277 294.058 36.7277H322.2Z" fill="#333333"/>
<rect width="9.85939" height="47.7186" rx="4.92969" transform="matrix(-1 0 0 1 81.6289 17.5813)" fill="#3B82F6"/>
<rect width="13.5055" height="13.2546" rx="6.62729" transform="matrix(1.17033e-08 -1 -1 -1.21506e-08 83.3281 13.5053)" fill="#073887"/>
<rect width="9.89459" height="65.181" rx="4.94729" transform="matrix(0.898365 0.43925 0.426062 -0.904694 0 60.8679)" fill="#3B82F6"/>
<rect x="-1.23684" y="-0.434663" width="8.02685" height="63.3133" rx="4.01343" transform="matrix(-0.898365 0.43925 -0.426062 -0.904694 57.9102 60.5832)" fill="#073887" stroke="#073887" stroke-width="1.86774"/>
<path opacity="0.8" d="M30.2168 3.57446C30.8867 3.59616 31.5644 3.75643 32.209 4.07153C34.6636 5.2717 35.7101 8.24904 34.5459 10.7209L30.2168 19.9114L25.8887 10.7209C24.7246 8.24904 25.771 5.2717 28.2256 4.07153C28.8699 3.75656 29.5472 3.59631 30.2168 3.57446Z" fill="#073887"/>
</svg>
