<svg width="44" height="44" viewBox="0 0 44 44" fill="none" xmlns="http://www.w3.org/2000/svg">
<path d="M5 15.9998C7.47102 9.0086 14.1385 3.99976 21.9758 3.99976C29.4341 3.99976 35.8329 8.53587 38.5639 14.9998" stroke="black" stroke-width="2.79" stroke-linecap="round"/>
<path d="M4.99953 27.9998C7.47055 34.9909 14.138 39.9998 21.9753 39.9998C29.4336 39.9998 35.8324 35.4636 38.5635 28.9998" stroke="black" stroke-width="2.79" stroke-linecap="round"/>
<path d="M40.2888 18.0608C40.1191 17.9394 39.9157 17.8741 39.707 17.874C39.4984 17.8741 39.295 17.9394 39.1253 18.0608C38.9556 18.1823 38.8282 18.3537 38.7608 18.5511L38.6317 18.9292C38.4834 19.3629 38.2378 19.7569 37.9135 20.081C37.5892 20.405 37.1951 20.6504 36.7612 20.7984L36.3831 20.9285C36.1858 20.9961 36.0146 21.1236 35.8934 21.2932C35.7722 21.4629 35.707 21.6661 35.707 21.8746C35.707 22.0831 35.7722 22.2864 35.8934 22.456C36.0146 22.6256 36.1858 22.7532 36.3831 22.8207L36.7612 22.9498C37.195 23.098 37.589 23.3437 37.9131 23.6679C38.2372 23.9921 38.4827 24.3862 38.6307 24.82L38.7608 25.1981C38.8283 25.3953 38.9559 25.5665 39.1256 25.6877C39.2952 25.8089 39.4985 25.874 39.707 25.874C39.9155 25.874 40.1188 25.8089 40.2885 25.6877C40.4582 25.5665 40.5857 25.3953 40.6533 25.1981L40.7823 24.82C40.9306 24.3863 41.1763 23.9923 41.5006 23.6683C41.8248 23.3442 42.219 23.0988 42.6529 22.9508L43.031 22.8207C43.2283 22.7532 43.3995 22.6256 43.5207 22.456C43.6419 22.2864 43.707 22.0831 43.707 21.8746C43.707 21.6661 43.6419 21.4629 43.5207 21.2932C43.3995 21.1236 43.2283 20.9961 43.031 20.9285L42.6529 20.7994C42.2191 20.6512 41.825 20.4055 41.5009 20.0813C41.1769 19.7571 40.9314 19.363 40.7833 18.9292L40.6533 18.5511C40.5859 18.3537 40.4585 18.1823 40.2888 18.0608Z" fill="black"/>
<path d="M4.1977 19.1304C4.07928 19.0457 3.93732 19.0001 3.79169 19C3.64607 19.0001 3.50411 19.0457 3.38568 19.1304C3.26726 19.2152 3.1783 19.3348 3.13126 19.4726L3.04121 19.7365C2.93772 20.0393 2.76625 20.3143 2.53995 20.5405C2.31364 20.7667 2.03852 20.938 1.73571 21.0413L1.47182 21.1321C1.33415 21.1793 1.21467 21.2683 1.13007 21.3867C1.04548 21.5051 1 21.647 1 21.7925C1 21.938 1.04548 22.0799 1.13007 22.1983C1.21467 22.3167 1.33415 22.4058 1.47182 22.4529L1.73571 22.543C2.03847 22.6465 2.31349 22.8179 2.53968 23.0443C2.76586 23.2706 2.93719 23.5457 3.04051 23.8485L3.13126 24.1124C3.17844 24.25 3.26745 24.3695 3.38587 24.4541C3.50428 24.5387 3.64617 24.5842 3.79169 24.5842C3.93722 24.5842 4.0791 24.5387 4.19752 24.4541C4.31593 24.3695 4.40494 24.25 4.45212 24.1124L4.54218 23.8485C4.64566 23.5457 4.81713 23.2707 5.04344 23.0445C5.26974 22.8183 5.54486 22.647 5.84767 22.5437L6.11157 22.4529C6.24923 22.4058 6.36872 22.3167 6.45331 22.1983C6.53791 22.0799 6.58338 21.938 6.58338 21.7925C6.58338 21.647 6.53791 21.5051 6.45331 21.3867C6.36872 21.2683 6.24923 21.1793 6.11157 21.1321L5.84767 21.042C5.54491 20.9385 5.26989 20.7671 5.04371 20.5408C4.81752 20.3145 4.6462 20.0393 4.54288 19.7365L4.45212 19.4726C4.40508 19.3348 4.31613 19.2152 4.1977 19.1304Z" fill="black"/>
<path d="M23.7013 26.9797L20.6488 17.5272C20.5429 17.2289 20.3457 16.9716 20.0852 16.7918C19.8247 16.612 19.5142 16.5189 19.1978 16.5257C18.8817 16.5194 18.5716 16.6127 18.3115 16.7925C18.0515 16.9722 17.8546 17.2293 17.7488 17.5272L14.6963 26.9797M28.9283 16.5257V26.9797M15.819 23.8435H22.5765" stroke="black" stroke-width="2.41077" stroke-linecap="round" stroke-linejoin="round"/>
</svg>
