<svg width="190" height="38" viewBox="0 0 190 38" fill="none" xmlns="http://www.w3.org/2000/svg">
<path d="M82.2138 12.9984C82.2138 14.019 82.0076 14.7247 81.595 15.1156C81.2041 15.5064 80.4876 15.7018 79.4453 15.7018H64.5929C63.5506 15.7018 62.8232 15.5064 62.4106 15.1156C62.0197 14.7247 61.8243 14.019 61.8243 12.9984V5.05108C61.8243 4.48651 62.0306 4.06309 62.4432 3.7808C62.8775 3.49852 63.3443 3.35738 63.8437 3.35738C64.3649 3.35738 64.8317 3.49852 65.2443 3.7808C65.6786 4.06309 65.8957 4.48651 65.8957 5.05108V6.84249H78.1424V5.05108C78.1424 4.48651 78.3487 4.06309 78.7613 3.7808C79.1956 3.49852 79.6624 3.35738 80.1619 3.35738C80.683 3.35738 81.1499 3.49852 81.5624 3.7808C81.9967 4.06309 82.2138 4.48651 82.2138 5.05108V12.9984ZM77.6539 12.3144C77.9796 12.3144 78.1424 12.1516 78.1424 11.8259V10.2299H65.8957V11.8259C65.8957 12.1516 66.0586 12.3144 66.3843 12.3144H77.6539ZM59.7072 21.4995C59.2078 21.4995 58.8386 21.3258 58.5998 20.9784C58.3609 20.6309 58.2415 20.2292 58.2415 19.7732C58.2415 19.2955 58.3609 18.8829 58.5998 18.5355C58.8386 18.1881 59.2078 18.0144 59.7072 18.0144H84.331C84.8304 18.0144 85.1995 18.1881 85.4384 18.5355C85.6772 18.8829 85.7967 19.2955 85.7967 19.7732C85.7967 20.2292 85.6772 20.6309 85.4384 20.9784C85.1995 21.3258 84.8304 21.4995 84.331 21.4995H74.5271V25.0172C74.5271 25.5817 74.3208 25.9943 73.9082 26.2549C73.5174 26.4937 73.0288 26.6132 72.4425 26.6132C71.8779 26.6132 71.3894 26.4937 70.9768 26.2549C70.586 25.9943 70.3905 25.5817 70.3905 25.0172V21.4995H59.7072ZM81.3344 29.2514C81.8338 29.2514 82.203 29.4251 82.4418 29.7726C82.6807 30.12 82.8001 30.5326 82.8001 31.0103C82.8001 31.488 82.6807 31.9005 82.4418 32.248C82.203 32.5954 81.8338 32.7691 81.3344 32.7691H64.5277C63.4854 32.7691 62.758 32.5737 62.3455 32.1828C61.9546 31.792 61.7592 31.0863 61.7592 30.0657V25.2777C61.7592 24.6698 61.9655 24.2246 62.378 23.9423C62.8123 23.66 63.3117 23.5189 63.8763 23.5189C64.4192 23.5189 64.8969 23.66 65.3094 23.9423C65.7437 24.2246 65.9609 24.6698 65.9609 25.2777V28.5023C65.9609 29.0017 66.2106 29.2514 66.71 29.2514H81.3344ZM99.6119 8.27562C99.6119 9.25275 99.753 10.0887 100.035 10.7836C100.339 11.4784 100.839 12.1299 101.534 12.7379C102.25 13.3459 102.912 13.8887 103.52 14.3664C104.128 14.8441 104.682 15.2676 105.182 15.6367C105.638 15.9624 105.866 16.3641 105.866 16.8418C105.887 17.2978 105.746 17.7321 105.442 18.1447C105.203 18.4921 104.845 18.7527 104.367 18.9264C103.89 19.1001 103.401 19.0132 102.902 18.6658C102.511 18.3835 102.022 18.0252 101.436 17.591C100.871 17.135 100.274 16.6355 99.6445 16.0927C98.8845 15.463 98.3633 14.9853 98.0811 14.6596C97.8205 14.3121 97.6468 13.9864 97.5599 13.6824H97.5274C97.4839 13.8561 97.4188 14.0407 97.3319 14.2361C97.2451 14.4098 97.1148 14.6053 96.9411 14.8224C96.7891 15.0178 96.5828 15.235 96.3222 15.4738C96.0617 15.7127 95.7359 15.995 95.3451 16.3207C94.0857 17.3847 92.8371 18.3618 91.5994 19.2521C91.1217 19.5995 90.6331 19.6864 90.1337 19.5127C89.656 19.3389 89.2977 19.0784 89.0589 18.7309C88.7766 18.3401 88.6246 17.895 88.6029 17.3955C88.6029 16.8961 88.8526 16.4618 89.352 16.0927C90.0686 15.5716 90.7526 15.0613 91.404 14.5618C92.0554 14.0407 92.7394 13.4761 93.456 12.8681C94.1508 12.2602 94.6394 11.6087 94.9217 10.9139C95.2257 10.219 95.3777 9.38304 95.3777 8.4059V5.4745C95.3777 4.84479 95.5839 4.3888 95.9965 4.10652C96.4308 3.82423 96.9302 3.68309 97.4948 3.68309C98.0594 3.68309 98.5479 3.82423 98.9605 4.10652C99.3948 4.3888 99.6119 4.84479 99.6119 5.4745V8.27562ZM105.149 12.0213C104.65 12.0213 104.28 11.8476 104.042 11.5002C103.803 11.1527 103.683 10.7402 103.683 10.2625C103.683 9.76303 103.803 9.33961 104.042 8.99218C104.28 8.64476 104.65 8.47105 105.149 8.47105H109.22V4.43223C109.22 3.82423 109.427 3.37909 109.839 3.09681C110.274 2.81453 110.762 2.67339 111.305 2.67339C111.826 2.67339 112.293 2.81453 112.705 3.09681C113.14 3.37909 113.357 3.82423 113.357 4.43223V18.7309C113.357 19.3389 113.14 19.7841 112.705 20.0664C112.293 20.3486 111.826 20.4898 111.305 20.4898C110.762 20.4898 110.274 20.3486 109.839 20.0664C109.427 19.7841 109.22 19.3389 109.22 18.7309V12.0213H105.149ZM109.188 25.9617C109.188 25.4623 108.938 25.2126 108.439 25.2126H94.5634C94.064 25.2126 93.6948 25.0389 93.456 24.6915C93.2171 24.344 93.0977 23.9315 93.0977 23.4538C93.0977 22.9761 93.2171 22.5635 93.456 22.2161C93.6948 21.8686 94.064 21.6949 94.5634 21.6949H110.588C111.631 21.6949 112.347 21.8903 112.738 22.2812C113.151 22.6721 113.357 23.3778 113.357 24.3983V31.5314C113.357 32.1394 113.14 32.5845 112.705 32.8668C112.293 33.1491 111.815 33.2902 111.272 33.2902C110.73 33.2902 110.241 33.1491 109.807 32.8668C109.394 32.5845 109.188 32.1394 109.188 31.5314V25.9617ZM149.907 4.62765C150.406 4.62765 150.765 4.80137 150.982 5.14879C151.221 5.4745 151.34 5.87621 151.34 6.35392C151.34 6.83163 151.221 7.2442 150.982 7.59163C150.765 7.91734 150.406 8.08019 149.907 8.08019H147.269V16.1904H150.037C150.537 16.1904 150.895 16.3641 151.112 16.7115C151.351 17.0373 151.47 17.439 151.47 17.9167C151.47 18.3944 151.351 18.8069 151.112 19.1544C150.895 19.4801 150.537 19.6429 150.037 19.6429H130.82C130.321 19.6429 129.952 19.4801 129.713 19.1544C129.496 18.8069 129.387 18.3944 129.387 17.9167C129.387 17.439 129.496 17.0373 129.713 16.7115C129.952 16.3641 130.321 16.1904 130.82 16.1904H133.589V8.08019H130.95C130.451 8.08019 130.082 7.91734 129.843 7.59163C129.626 7.2442 129.517 6.83163 129.517 6.35392C129.517 5.87621 129.626 5.4745 129.843 5.14879C130.082 4.80137 130.451 4.62765 130.95 4.62765H149.907ZM137.627 16.1904H143.23V8.08019H137.627V16.1904ZM128.117 28.4697C127.617 28.4697 127.248 28.296 127.009 27.9486C126.77 27.6012 126.651 27.1886 126.651 26.7109C126.651 26.2332 126.77 25.8206 127.009 25.4732C127.248 25.1257 127.617 24.952 128.117 24.952H138.344V17.7864H142.513V24.952H152.74C153.24 24.952 153.609 25.1257 153.848 25.4732C154.087 25.8206 154.206 26.2332 154.206 26.7109C154.206 27.1886 154.087 27.6012 153.848 27.9486C153.609 28.296 153.24 28.4697 152.74 28.4697H128.117ZM158.12 6.51678C158.12 5.49622 158.315 4.79051 158.706 4.39966C159.119 4.0088 159.846 3.81338 160.888 3.81338H171.018C171.496 3.81338 171.843 3.98709 172.06 4.33451C172.277 4.68194 172.386 5.07279 172.386 5.50707C172.386 5.94135 172.277 6.33221 172.06 6.67963C171.843 7.02706 171.496 7.20077 171.018 7.20077H162.94C162.441 7.20077 162.191 7.45048 162.191 7.94991V9.41561H169.65C170.128 9.41561 170.475 9.58932 170.692 9.93675C170.931 10.2625 171.051 10.6425 171.051 11.0767C171.051 11.511 170.931 11.9019 170.692 12.2493C170.475 12.575 170.128 12.7379 169.65 12.7379H162.191V14.2361C162.191 14.7356 162.441 14.9853 162.94 14.9853C164.851 14.9853 166.643 14.9418 168.315 14.855C170.008 14.7464 171.648 14.5836 173.233 14.3664C173.732 14.3013 174.123 14.4207 174.405 14.7247C174.709 15.007 174.883 15.3653 174.927 15.7995C174.97 16.2555 174.905 16.679 174.731 17.0698C174.557 17.439 174.232 17.6561 173.754 17.7212C173.081 17.8081 172.332 17.895 171.507 17.9818C170.703 18.047 169.78 18.1121 168.738 18.1772C167.696 18.2424 166.523 18.2967 165.22 18.3401C163.939 18.3618 162.495 18.3727 160.888 18.3727C159.846 18.3727 159.119 18.1772 158.706 17.7864C158.315 17.3955 158.12 16.6898 158.12 15.6693V6.51678ZM177.63 12.119H174.047C173.526 12.119 173.146 11.9453 172.907 11.5979C172.668 11.2504 172.549 10.827 172.549 10.3276C172.549 9.82818 172.668 9.40475 172.907 9.05733C173.146 8.7099 173.526 8.53619 174.047 8.53619H177.63V4.43223C177.63 3.82423 177.836 3.37909 178.249 3.09681C178.683 2.81453 179.172 2.67339 179.714 2.67339C180.236 2.67339 180.702 2.81453 181.115 3.09681C181.549 3.37909 181.766 3.82423 181.766 4.43223V17.1024C181.766 17.7104 181.549 18.1555 181.115 18.4378C180.702 18.7201 180.236 18.8612 179.714 18.8612C179.172 18.8612 178.683 18.7201 178.249 18.4378C177.836 18.1555 177.63 17.7104 177.63 17.1024V12.119ZM178.998 20.0664C180.04 20.0664 180.757 20.2618 181.148 20.6526C181.56 21.0435 181.766 21.7492 181.766 22.7698V25.3755C181.766 26.396 181.56 27.1017 181.148 27.4926C180.757 27.8834 180.04 28.0789 178.998 28.0789H166.621C166.295 28.0789 166.132 28.2417 166.132 28.5674V29.3491C166.132 29.6748 166.295 29.8377 166.621 29.8377H181.082C181.538 29.8377 181.875 30.0006 182.092 30.3263C182.309 30.652 182.418 31.0211 182.418 31.4337C182.418 31.868 182.309 32.248 182.092 32.5737C181.875 32.8994 181.538 33.0622 181.082 33.0622H164.862C163.82 33.0622 163.092 32.8668 162.68 32.476C162.289 32.0851 162.093 31.3794 162.093 30.3588V27.7206C162.093 26.7 162.289 25.9943 162.68 25.6035C163.092 25.2126 163.82 25.0172 164.862 25.0172H177.239C177.565 25.0172 177.728 24.8543 177.728 24.5286V23.7795C177.728 23.4538 177.565 23.2909 177.239 23.2909H163.364C162.908 23.2909 162.571 23.1281 162.354 22.8023C162.137 22.4766 162.028 22.0966 162.028 21.6624C162.028 21.2498 162.137 20.8806 162.354 20.5549C162.571 20.2292 162.908 20.0664 163.364 20.0664H178.998Z" fill="#333333"/>
<rect width="5.47736" height="25.9047" rx="2.73868" transform="matrix(-1 0 0 1 45.3506 9.54395)" fill="#F53C80"/>
<rect width="7.33163" height="7.36355" rx="3.66582" transform="matrix(1.19768e-08 -1 -1 -1.18732e-08 46.2939 7.33066)" fill="#333333"/>
<rect width="5.47293" height="35.5359" rx="2.73646" transform="matrix(0.902303 0.431103 0.434158 -0.900837 0 33.0434)" fill="#F53C80"/>
<rect x="-0.693367" y="-0.243702" width="4.43531" height="34.4983" rx="2.21765" transform="matrix(-0.902303 0.431103 -0.434158 -0.900837 32.1563 32.8791)" fill="#333333" stroke="#333333" stroke-width="1.03762"/>
<path opacity="0.8" d="M16.7315 1.94556C17.1227 1.94793 17.5197 2.03159 17.8955 2.21118C19.2589 2.86277 19.8327 4.49443 19.1768 5.85571L16.7881 10.8108L14.4004 5.85571C13.7444 4.4943 14.3181 2.8627 15.6817 2.21118C16.0211 2.049 16.3775 1.96248 16.7315 1.94556Z" fill="#333333"/>
</svg>
