<svg width="172" height="48" viewBox="0 0 172 48" fill="none" xmlns="http://www.w3.org/2000/svg">
<g opacity="0.6" clip-path="url(#clip0_69_2837)">
<path d="M69.446 33.5294V39.6891H68.4372V34.7335L66.8006 39.6891H65.8291L64.1925 34.7335V39.6891H63.1836V33.5294H64.7305L66.3148 38.3309L67.8991 33.5294H69.446Z" fill="#888888"/>
<path d="M71.9266 34.014C71.9266 34.1828 71.8593 34.3297 71.7323 34.4618C71.6052 34.5866 71.4483 34.6527 71.269 34.6527C71.0896 34.6527 70.9327 34.5866 70.8056 34.4618C70.6786 34.337 70.6113 34.1902 70.6113 34.014C70.6113 33.8378 70.6786 33.6836 70.8056 33.5588C70.9327 33.434 71.0896 33.3679 71.269 33.3679C71.4483 33.3679 71.6052 33.434 71.7323 33.5588C71.8593 33.6836 71.9266 33.8378 71.9266 34.014ZM70.7683 39.6891V35.2621H71.7921V39.6891H70.7683Z" fill="#888888"/>
<path d="M74.1316 37.4644V39.6889H73.1152V35.2619H74.0942V35.8565C74.2138 35.651 74.3857 35.4821 74.6173 35.35C74.8415 35.2178 75.0881 35.1517 75.3572 35.1517C75.8877 35.1517 76.3137 35.3279 76.6351 35.6877C76.9564 36.0401 77.1133 36.5173 77.1133 37.112V39.6816H76.0895V37.3689C76.0895 36.8991 76.0148 36.5467 75.8579 36.3191C75.7009 36.0915 75.4618 35.9813 75.1404 35.9813C74.9686 35.9813 74.8116 36.0327 74.6472 36.1429C74.4903 36.253 74.3707 36.3998 74.281 36.5907C74.1764 36.811 74.1241 37.0973 74.1241 37.457L74.1316 37.4644Z" fill="#888888"/>
<path d="M79.5653 34.014C79.5653 34.1828 79.498 34.3297 79.371 34.4618C79.2439 34.5866 79.087 34.6527 78.9076 34.6527C78.7283 34.6527 78.5713 34.5866 78.4443 34.4618C78.3173 34.337 78.25 34.1902 78.25 34.014C78.25 33.8378 78.3173 33.6836 78.4443 33.5588C78.5713 33.434 78.7283 33.3679 78.9076 33.3679C79.087 33.3679 79.2439 33.434 79.371 33.5588C79.498 33.6836 79.5653 33.8378 79.5653 34.014ZM78.4069 39.6891V35.2621H79.4307V39.6891H78.4069Z" fill="#888888"/>
<path d="M80.3336 38.8666L80.9689 38.2206C81.1482 38.4628 81.35 38.6464 81.5592 38.7859C81.7685 38.9107 81.9927 38.9694 82.2318 38.9694C82.456 38.9694 82.6503 38.9254 82.8072 38.8299C82.9642 38.7418 83.0464 38.617 83.0464 38.4628C83.0464 38.3087 82.9716 38.1912 82.8147 38.1031C82.6652 38.015 82.4784 37.9342 82.2692 37.8608C82.0226 37.7874 81.7685 37.6993 81.5144 37.6039C81.1632 37.4791 80.9091 37.3249 80.7521 37.1266C80.5877 36.9284 80.5055 36.7082 80.5055 36.4659C80.5055 36.0988 80.6774 35.7905 81.0286 35.5335C81.3724 35.2765 81.7834 35.1517 82.2617 35.1517C82.7624 35.1517 83.1734 35.2692 83.4948 35.5041C83.6592 35.6289 83.7862 35.7831 83.8834 35.9667L83.2556 36.5687C83.1734 36.4292 83.0763 36.3117 82.9567 36.2236C82.7624 36.0548 82.5083 35.9667 82.2094 35.9667C82.0375 35.9667 81.888 36.0107 81.7535 36.0915C81.6265 36.1796 81.5592 36.275 81.5592 36.3925C81.5592 36.5246 81.634 36.6348 81.7759 36.7229C81.9179 36.811 82.1347 36.8991 82.4186 36.9798C82.5233 37.0092 82.6354 37.0459 82.7699 37.0826C83.2108 37.2221 83.5396 37.4056 83.7638 37.6332C83.988 37.8608 84.1001 38.1251 84.1001 38.4408C84.1001 38.8079 83.9207 39.1236 83.562 39.3879C83.2033 39.6522 82.74 39.7917 82.187 39.7917C81.7236 39.7917 81.3051 39.6889 80.9464 39.476C80.7073 39.3365 80.4981 39.1309 80.3262 38.8666H80.3336Z" fill="#888888"/>
<path d="M86.3124 33.8375V35.2618H87.2914V36.0767H86.3124V38.3306C86.3124 38.5436 86.3647 38.6904 86.4693 38.7711C86.5739 38.8519 86.7234 38.8886 86.9177 38.8886H87.2988V39.6962H86.6786C86.1928 39.6962 85.8416 39.5861 85.6174 39.3805C85.3932 39.1676 85.2811 38.8519 85.2811 38.4334V36.0841H84.5039V35.2692H85.2811V33.8449H86.3124V33.8375Z" fill="#888888"/>
<path d="M88.2188 39.6887V35.2616H89.1828V35.9224C89.3322 35.7022 89.5116 35.5333 89.7283 35.4158C89.9824 35.2617 90.2888 35.1882 90.64 35.1882H90.7073V36.0913H90.6027C90.1767 36.0913 89.8404 36.2161 89.5863 36.473C89.3547 36.7226 89.2351 37.1044 89.2351 37.633V39.6887H88.2188Z" fill="#888888"/>
<path d="M92.9332 39.5201L91.1621 35.262H92.2233L93.4489 38.2867L94.667 35.262H95.7207L93.2097 41.3996H92.1635L92.9407 39.5201H92.9332Z" fill="#888888"/>
<path d="M100.855 39.7991C100.197 39.7991 99.6365 39.5789 99.1657 39.131C98.7024 38.6832 98.4707 38.1399 98.4707 37.4865C98.4707 36.8331 98.7024 36.2824 99.1657 35.8346C99.629 35.3868 100.19 35.1665 100.855 35.1665C101.52 35.1665 102.088 35.3941 102.544 35.8346C103.007 36.2824 103.239 36.8331 103.239 37.4865C103.239 38.1399 103.007 38.6905 102.544 39.131C102.08 39.5789 101.52 39.7991 100.855 39.7991ZM100.855 38.9622C101.228 38.9622 101.542 38.8227 101.811 38.5437C102.08 38.2647 102.215 37.9123 102.215 37.4791C102.215 37.046 102.08 36.7009 101.811 36.4146C101.542 36.1283 101.228 35.9888 100.855 35.9888C100.481 35.9888 100.175 36.1283 99.9055 36.4146C99.6365 36.7009 99.502 37.0533 99.502 37.4791C99.502 37.905 99.6365 38.2647 99.9055 38.5437C100.175 38.8227 100.488 38.9622 100.855 38.9622Z" fill="#888888"/>
<path d="M104.412 34.7922C104.412 34.3811 104.531 34.0654 104.763 33.8525C105.002 33.6395 105.361 33.5294 105.846 33.5294H106.34V34.337H106.041C105.846 34.337 105.704 34.3737 105.592 34.4545C105.488 34.5352 105.435 34.6821 105.435 34.895V35.2621H106.332V36.077H105.435V39.6891H104.404V36.077H103.627V35.2621H104.404V34.7922H104.412Z" fill="#888888"/>
<path d="M112.065 39.6456H111.012V33.486H114.987V34.3449H112.065V36.129H114.905V36.9806H112.065V39.6456Z" fill="#888888"/>
<path d="M118.14 39.7487C117.482 39.7487 116.922 39.5284 116.459 39.0806C115.995 38.6328 115.764 38.0895 115.764 37.4361C115.764 36.7827 115.995 36.232 116.459 35.7842C116.922 35.3363 117.482 35.1161 118.14 35.1161C118.798 35.1161 119.373 35.3363 119.829 35.7842C120.292 36.232 120.524 36.7827 120.524 37.4361C120.524 38.0895 120.292 38.6401 119.829 39.0806C119.366 39.5284 118.805 39.7487 118.14 39.7487ZM118.14 38.9191C118.514 38.9191 118.828 38.7796 119.097 38.5006C119.366 38.2216 119.5 37.8692 119.5 37.4361C119.5 37.0029 119.366 36.6578 119.097 36.3715C118.828 36.0852 118.514 35.9457 118.14 35.9457C117.766 35.9457 117.46 36.0925 117.191 36.3715C116.922 36.6578 116.787 37.0102 116.787 37.4361C116.787 37.8619 116.922 38.2216 117.191 38.5006C117.46 38.7796 117.774 38.9191 118.14 38.9191Z" fill="#888888"/>
<path d="M121.482 39.6452V35.2182H122.446V35.8789C122.596 35.6587 122.783 35.4972 122.992 35.3724C123.246 35.2182 123.552 35.1448 123.904 35.1448H123.978V36.0478H123.874C123.448 36.0478 123.112 36.1726 122.857 36.4296C122.626 36.6792 122.506 37.061 122.506 37.5896V39.6452H121.49H121.482Z" fill="#888888"/>
<path d="M125.428 37.8761C125.488 38.1477 125.615 38.368 125.817 38.5368C126.101 38.7938 126.482 38.926 126.96 38.926C127.461 38.926 127.924 38.7498 128.357 38.39L128.664 39.1315C128.178 39.5427 127.603 39.7482 126.938 39.7482C126.175 39.7482 125.555 39.5353 125.077 39.1095C124.599 38.6837 124.359 38.1331 124.359 37.4429C124.359 36.7528 124.569 36.2095 124.995 35.769C125.421 35.3285 125.974 35.1083 126.654 35.1083C127.334 35.1083 127.879 35.3285 128.305 35.7617C128.731 36.1948 128.948 36.7381 128.948 37.3769C128.948 37.5531 128.933 37.7219 128.903 37.8688H125.435L125.428 37.8761ZM125.413 37.0832H127.917C127.902 36.7969 127.782 36.5326 127.55 36.2903C127.319 36.048 127.02 35.9305 126.661 35.9305C126.302 35.9305 125.981 36.0627 125.742 36.3197C125.57 36.5179 125.458 36.7675 125.421 37.0832H125.413Z" fill="#888888"/>
<path d="M131.077 33.9705C131.077 34.1394 131.01 34.2936 130.883 34.4184C130.756 34.5432 130.599 34.6093 130.419 34.6093C130.24 34.6093 130.083 34.5432 129.956 34.4184C129.829 34.2936 129.762 34.1467 129.762 33.9705C129.762 33.7943 129.829 33.6402 129.956 33.5153C130.083 33.3905 130.24 33.3245 130.419 33.3245C130.599 33.3245 130.756 33.3905 130.883 33.5153C131.01 33.6402 131.077 33.7943 131.077 33.9705ZM129.919 39.6457V35.2186H130.942V39.6457H129.919Z" fill="#888888"/>
<path d="M134.111 41.4075C133.423 41.4075 132.833 41.2386 132.34 40.9009L132.646 40.0933C133.102 40.4237 133.588 40.5852 134.111 40.5852C134.567 40.5852 134.925 40.4604 135.187 40.2034C135.449 39.9465 135.576 39.6675 135.576 39.3444V39.0801C135.202 39.5206 134.731 39.7409 134.163 39.7409C133.506 39.7409 132.968 39.5133 132.564 39.0508C132.153 38.5956 131.951 38.0523 131.951 37.4283C131.951 36.8042 132.153 36.2609 132.564 35.7984C132.968 35.3359 133.506 35.1083 134.163 35.1083C134.694 35.1083 135.157 35.3212 135.538 35.747V35.2184H136.562V38.8966C136.562 39.7409 136.345 40.3649 135.927 40.7834C135.501 41.2019 134.896 41.4075 134.111 41.4075ZM135.531 37.7293C135.546 37.531 135.546 37.3328 135.531 37.1493C135.493 36.8115 135.366 36.5326 135.15 36.3123C134.911 36.0627 134.612 35.9452 134.26 35.9452C133.864 35.9452 133.55 36.0921 133.326 36.3784C133.095 36.6647 132.982 37.0245 132.982 37.4503C132.982 37.8761 133.095 38.2358 133.326 38.5222C133.558 38.8085 133.864 38.948 134.26 38.948C134.612 38.948 134.911 38.8232 135.15 38.5809C135.366 38.3533 135.493 38.0817 135.531 37.7513V37.7293Z" fill="#888888"/>
<path d="M138.827 37.4209V39.6454H137.811V35.2184H138.79V35.8131C138.909 35.6075 139.081 35.4387 139.313 35.3065C139.537 35.1744 139.783 35.1083 140.045 35.1083C140.583 35.1083 141.009 35.2845 141.33 35.6442C141.652 36.004 141.809 36.4738 141.809 37.0685V39.6381H140.785V37.3255C140.785 36.8556 140.71 36.5032 140.553 36.2756C140.396 36.048 140.157 35.9379 139.836 35.9379C139.671 35.9379 139.507 35.9893 139.343 36.0994C139.186 36.2095 139.059 36.3564 138.976 36.5472C138.872 36.7675 138.819 37.0538 138.819 37.4136L138.827 37.4209Z" fill="#888888"/>
<path d="M148.729 33.486L150.926 39.6456H149.857L149.23 37.8322H146.823L146.196 39.6456H145.127L147.309 33.486H148.736H148.729ZM147.115 36.9733H148.931L148.034 34.3816L147.115 36.9733Z" fill="#888888"/>
<path d="M151.65 34.7487C151.65 34.3376 151.77 34.0219 152.001 33.809C152.241 33.5961 152.599 33.486 153.085 33.486H153.578V34.2935H153.279C153.085 34.2935 152.943 34.3376 152.838 34.411C152.734 34.4918 152.682 34.6386 152.682 34.8515V35.2186H153.578V36.0335H152.682V39.6456H151.65V36.0335H150.873V35.2186H151.65V34.7487Z" fill="#888888"/>
<path d="M154.984 34.7487C154.984 34.3376 155.104 34.0219 155.343 33.809C155.582 33.5961 155.941 33.486 156.427 33.486H156.92V34.2935H156.621C156.427 34.2935 156.277 34.3376 156.172 34.411C156.068 34.4918 156.016 34.6386 156.016 34.8515V35.2186H156.912V36.0335H156.016V39.6456H154.984V36.0335H154.207V35.2186H154.984V34.7487Z" fill="#888888"/>
<path d="M159.639 36.79H160.7C160.7 36.5037 160.588 36.2834 160.356 36.1366C160.124 35.9898 159.796 35.9237 159.362 35.9237H159.332C158.929 35.9237 158.495 36.0191 158.039 36.21L157.778 35.4244C158.249 35.2262 158.772 35.1234 159.34 35.1161H159.355C160.109 35.1161 160.692 35.2556 161.096 35.5419C161.499 35.8282 161.701 36.2834 161.701 36.9075V39.6459H160.73V39.1614C160.535 39.3522 160.304 39.4917 160.02 39.5945C159.743 39.6973 159.459 39.7487 159.168 39.7487C158.63 39.7487 158.189 39.6092 157.86 39.3302C157.524 39.0512 157.359 38.7062 157.359 38.3024C157.359 37.8472 157.569 37.4728 157.98 37.1791C158.361 36.9221 158.906 36.79 159.616 36.79H159.639ZM159.362 38.9558C159.624 38.9558 159.885 38.8897 160.147 38.7649C160.408 38.6401 160.588 38.4933 160.707 38.3244V37.5756H159.796C159.28 37.5756 158.921 37.6416 158.719 37.7738C158.518 37.9206 158.421 38.0968 158.421 38.3024C158.421 38.4933 158.503 38.6474 158.675 38.7723C158.839 38.8971 159.071 38.9558 159.37 38.9558H159.362Z" fill="#888888"/>
<path d="M164.167 33.9705C164.167 34.1394 164.107 34.2936 163.973 34.4184C163.845 34.5432 163.689 34.6093 163.509 34.6093C163.33 34.6093 163.173 34.5432 163.046 34.4184C162.919 34.2936 162.852 34.1467 162.852 33.9705C162.852 33.7943 162.919 33.6402 163.046 33.5153C163.173 33.3905 163.33 33.3245 163.509 33.3245C163.689 33.3245 163.845 33.3905 163.973 33.5153C164.1 33.6402 164.167 33.7943 164.167 33.9705ZM163.009 39.6457V35.2186H164.032V39.6457H163.009Z" fill="#888888"/>
<path d="M165.355 39.6452V35.2182H166.319V35.8789C166.469 35.6587 166.656 35.4972 166.865 35.3724C167.119 35.2182 167.425 35.1448 167.777 35.1448H167.844V36.0478H167.739C167.313 36.0478 166.977 36.1726 166.723 36.4296C166.491 36.6792 166.372 37.061 166.372 37.5896V39.6452H165.355Z" fill="#888888"/>
<path d="M168.225 38.8232L168.867 38.1771C169.047 38.4194 169.241 38.6029 169.458 38.7424C169.667 38.8672 169.891 38.926 170.13 38.926C170.354 38.926 170.549 38.8819 170.713 38.7865C170.87 38.691 170.952 38.5736 170.952 38.4194C170.952 38.2652 170.878 38.1477 170.721 38.0596C170.564 37.9715 170.384 37.8908 170.175 37.8174C169.928 37.7439 169.682 37.6558 169.42 37.5604C169.069 37.4356 168.815 37.2741 168.658 37.0832C168.494 36.8923 168.411 36.6721 168.411 36.4224C168.411 36.0554 168.583 35.747 168.935 35.49C169.278 35.2331 169.689 35.1083 170.168 35.1083C170.668 35.1083 171.079 35.2257 171.401 35.4607C171.565 35.5855 171.692 35.7397 171.789 35.9159L171.162 36.5179C171.079 36.3784 170.982 36.2609 170.863 36.1728C170.668 36.004 170.414 35.9159 170.115 35.9159C169.943 35.9159 169.786 35.9599 169.659 36.0407C169.532 36.1288 169.465 36.2316 169.465 36.349C169.465 36.4812 169.54 36.5913 169.682 36.6794C169.824 36.7675 170.041 36.8556 170.317 36.9364C170.422 36.9657 170.534 37.0024 170.668 37.0391C171.109 37.1786 171.438 37.3622 171.662 37.5898C171.886 37.8174 171.999 38.0817 171.999 38.39C171.999 38.7571 171.819 39.0728 171.46 39.3371C171.102 39.6087 170.646 39.7409 170.085 39.7409C169.615 39.7409 169.204 39.6381 168.845 39.4252C168.606 39.2857 168.396 39.0801 168.225 38.8158V38.8232Z" fill="#888888"/>
<path d="M37.724 22.9067C33.4793 20.0728 28.0464 21.2255 25.1917 25.491C22.8078 29.0517 19.2132 29.4922 17.8158 29.4922C13.2796 29.4922 10.1708 26.3573 9.25165 23.1123C9.25165 23.1123 9.2367 23.0535 9.22923 23.0242C9.22176 22.9875 9.20681 22.9507 9.19934 22.914C8.84063 21.5632 8.75096 20.9098 8.75096 19.4708C8.75096 11.7106 16.8592 3.0621 28.5321 3.0621C40.2051 3.0621 47.3344 12.0043 49.0905 16.9746C49.0607 16.8865 49.0308 16.7984 49.0009 16.7103C45.6081 6.9899 36.2294 0.000610352 25.1767 0.000610352C11.2768 0.000610352 0 11.0719 0 24.7348C0 36.944 8.96767 47.3986 21.4028 47.3986C31.3196 47.3986 37.9856 41.9364 41.0421 34.4038C42.7235 30.2851 41.5353 25.4469 37.724 22.9067Z" fill="#888888"/>
<path d="M49.2485 17.4593C47.7763 12.6138 40.8861 3.06226 28.5332 3.06226C16.8528 3.06226 8.75195 11.7034 8.75195 19.4709C8.75195 20.9099 8.84163 21.556 9.20034 22.9142C9.05088 22.3195 8.96867 21.7248 8.96867 21.1522C8.96867 13.069 17.2115 7.46727 25.6784 7.46727C37.1421 7.46727 46.4386 16.6003 46.4386 27.8625C46.4386 36.6946 41.2673 44.3373 33.7493 48.0081C43.4344 44.5649 50.3545 35.4538 50.3545 24.7496C50.3545 22.2167 50.0107 19.9849 49.2485 17.4667V17.4593Z" fill="#888888"/>
<path d="M75.1125 22.9731V24.9701H62.625V22.9731H67.6021V19.0674C67.2807 19.0013 66.9743 18.9058 66.6829 18.781C66.0178 18.5094 65.4423 18.1496 64.9715 17.7165C64.4783 17.254 64.0972 16.718 63.8132 16.116C63.5292 15.514 63.3798 14.8606 63.3798 14.1631C63.3798 13.4656 63.5218 12.8343 63.8132 12.2322C64.0972 11.6302 64.4858 11.0943 64.9715 10.6317C65.4423 10.1912 66.0103 9.83884 66.6679 9.57454C67.3256 9.31024 68.0131 9.17075 68.738 9.17075C69.4629 9.17075 70.1504 9.3029 70.7856 9.57454C71.4283 9.83884 71.9887 10.1986 72.482 10.6317C72.9677 11.1016 73.3563 11.6302 73.6403 12.2322C73.9243 12.8343 74.0663 13.4803 74.0663 14.1631C74.0663 14.8459 73.9243 15.514 73.6403 16.116C73.3563 16.718 72.9677 17.254 72.482 17.7165C71.9962 18.157 71.4283 18.5094 70.7856 18.781C70.4792 18.9058 70.1504 19.0013 69.7991 19.0674V22.9731H75.1125ZM71.7795 14.1558C71.7795 13.7593 71.6973 13.3775 71.5404 13.0178C71.376 12.6581 71.1592 12.3277 70.8827 12.0413C70.6062 11.7844 70.2774 11.5715 69.9112 11.4026C69.5376 11.2411 69.149 11.153 68.7305 11.153C68.312 11.153 67.9159 11.2338 67.5497 11.4026C67.1836 11.5641 66.8473 11.777 66.5558 12.0413C66.2868 12.3277 66.0776 12.6581 65.9057 13.0178C65.7338 13.3775 65.6516 13.7593 65.6516 14.1558C65.6516 14.5522 65.7338 14.956 65.9057 15.3157C66.0701 15.6755 66.2868 16.0059 66.5558 16.2922C66.8473 16.5565 67.1761 16.7621 67.5497 16.9309C67.9234 17.0924 68.312 17.1805 68.7305 17.1805C69.149 17.1805 69.5376 17.0998 69.9112 16.9309C70.2849 16.7694 70.6062 16.5565 70.8827 16.2922C71.1592 16.0059 71.376 15.6828 71.5404 15.3157C71.7048 14.956 71.7795 14.5669 71.7795 14.1558ZM76.5099 8.46594H78.8116V26.7982H76.5099V8.46594Z" fill="#888888"/>
<path d="M87.8248 23.4432V17.7534H90.0219V23.4432H93.1381V17.7534H95.3576V23.4432H100.903V25.4402H83.752V23.4432H87.8322H87.8248ZM97.196 20.2202V11.4249H85.127V9.39124H99.5201V20.2202H97.196Z" fill="#888888"/>
<path d="M105.049 20.0441H122.207V22.0557H114.779V26.7837H112.455V22.0557H105.049V20.0441ZM108.711 11.0872H118.523V8.76721H120.824V17.5846H106.431V8.76721H108.711V11.0872ZM118.523 13.0548H108.711V15.5803H118.523V13.0548Z" fill="#888888"/>
</g>
<defs>
<clipPath id="clip0_69_2837">
<rect width="172" height="48" fill="white"/>
</clipPath>
</defs>
</svg>
