<svg width="202" height="30" viewBox="0 0 202 30" fill="none" xmlns="http://www.w3.org/2000/svg">
<path d="M64.0402 10.3167C64.0402 11.1116 63.8795 11.6614 63.5581 11.9658C63.2537 12.2703 62.6955 12.4225 61.8836 12.4225H50.3141C49.5022 12.4225 48.9355 12.2703 48.6142 11.9658C48.3097 11.6614 48.1575 11.1116 48.1575 10.3167V4.12594C48.1575 3.68617 48.3182 3.35633 48.6395 3.13645C48.9778 2.91656 49.3415 2.80661 49.7305 2.80661C50.1365 2.80661 50.5001 2.91656 50.8215 3.13645C51.1598 3.35633 51.3289 3.68617 51.3289 4.12594V5.52139H60.8687V4.12594C60.8687 3.68617 61.0294 3.35633 61.3508 3.13645C61.6891 2.91656 62.0527 2.80661 62.4418 2.80661C62.8477 2.80661 63.2114 2.91656 63.5328 3.13645C63.8711 3.35633 64.0402 3.68617 64.0402 4.12594V10.3167ZM60.4882 9.78385C60.7419 9.78385 60.8687 9.65699 60.8687 9.40327V8.16005H51.3289V9.40327C51.3289 9.65699 51.4558 9.78385 51.7095 9.78385H60.4882ZM46.5083 16.9387C46.1193 16.9387 45.8317 16.8034 45.6457 16.5327C45.4596 16.2621 45.3666 15.9492 45.3666 15.594C45.3666 15.2219 45.4596 14.9005 45.6457 14.6299C45.8317 14.3592 46.1193 14.2239 46.5083 14.2239H65.6894C66.0784 14.2239 66.3659 14.3592 66.552 14.6299C66.7381 14.9005 66.8311 15.2219 66.8311 15.594C66.8311 15.9492 66.7381 16.2621 66.552 16.5327C66.3659 16.8034 66.0784 16.9387 65.6894 16.9387H58.0525V19.6788C58.0525 20.1186 57.8918 20.44 57.5704 20.643C57.2659 20.829 56.8854 20.922 56.4287 20.922C55.9889 20.922 55.6083 20.829 55.2869 20.643C54.9825 20.44 54.8303 20.1186 54.8303 19.6788V16.9387H46.5083ZM63.3552 22.9772C63.7442 22.9772 64.0317 23.1125 64.2178 23.3831C64.4039 23.6537 64.4969 23.9751 64.4969 24.3472C64.4969 24.7194 64.4039 25.0407 64.2178 25.3114C64.0317 25.582 63.7442 25.7173 63.3552 25.7173H50.2633C49.4514 25.7173 48.8848 25.5651 48.5634 25.2606C48.259 24.9562 48.1067 24.4064 48.1067 23.6115V19.8818C48.1067 19.4082 48.2674 19.0615 48.5888 18.8416C48.9271 18.6217 49.3161 18.5117 49.7559 18.5117C50.1788 18.5117 50.5509 18.6217 50.8723 18.8416C51.2105 19.0615 51.3797 19.4082 51.3797 19.8818V22.3936C51.3797 22.7826 51.5742 22.9772 51.9632 22.9772H63.3552ZM77.5927 6.63775C77.5927 7.3989 77.7026 8.05011 77.9225 8.59137C78.1593 9.13264 78.5484 9.64007 79.0896 10.1137C79.6478 10.5873 80.1637 11.0101 80.6373 11.3823C81.1109 11.7544 81.5422 12.0842 81.9313 12.3718C82.2865 12.6255 82.4641 12.9384 82.4641 13.3105C82.481 13.6657 82.371 14.004 82.1342 14.3254C81.9482 14.596 81.6691 14.799 81.297 14.9343C80.9248 15.0696 80.5443 15.002 80.1552 14.7313C79.8508 14.5115 79.4702 14.2324 79.0135 13.8941C78.5737 13.5389 78.1086 13.1498 77.6181 12.727C77.026 12.2364 76.6201 11.8643 76.4002 11.6106C76.1972 11.34 76.0619 11.0863 75.9943 10.8495H75.9689C75.9351 10.9848 75.8843 11.1285 75.8167 11.2808C75.749 11.4161 75.6475 11.5683 75.5122 11.7375C75.3938 11.8897 75.2331 12.0588 75.0301 12.2449C74.8272 12.431 74.5734 12.6509 74.269 12.9046C73.2879 13.7334 72.3154 14.4945 71.3512 15.188C70.9791 15.4587 70.5985 15.5263 70.2095 15.391C69.8374 15.2557 69.5583 15.0527 69.3722 14.7821C69.1523 14.4776 69.0339 14.1309 69.017 13.7418C69.017 13.3528 69.2115 13.0145 69.6006 12.727C70.1588 12.321 70.6916 11.9235 71.199 11.5345C71.7064 11.1285 72.2392 10.6888 72.7974 10.2152C73.3387 9.74156 73.7193 9.23412 73.9391 8.69286C74.176 8.1516 74.2944 7.50039 74.2944 6.73923V4.45578C74.2944 3.96526 74.455 3.61005 74.7764 3.39016C75.1147 3.17027 75.5037 3.06033 75.9435 3.06033C76.3833 3.06033 76.7639 3.17027 77.0852 3.39016C77.4235 3.61005 77.5927 3.96526 77.5927 4.45578V6.63775ZM81.9059 9.5555C81.5168 9.5555 81.2293 9.42018 81.0432 9.14955C80.8572 8.87892 80.7642 8.55755 80.7642 8.18543C80.7642 7.79639 80.8572 7.46656 81.0432 7.19593C81.2293 6.92529 81.5168 6.78998 81.9059 6.78998H85.0774V3.64388C85.0774 3.17027 85.238 2.82353 85.5594 2.60364C85.8977 2.38375 86.2783 2.27381 86.7011 2.27381C87.1071 2.27381 87.4708 2.38375 87.7921 2.60364C88.1304 2.82353 88.2996 3.17027 88.2996 3.64388V14.7821C88.2996 15.2557 88.1304 15.6024 87.7921 15.8223C87.4708 16.0422 87.1071 16.1522 86.7011 16.1522C86.2783 16.1522 85.8977 16.0422 85.5594 15.8223C85.238 15.6024 85.0774 15.2557 85.0774 14.7821V9.5555H81.9059ZM85.052 20.4146C85.052 20.0256 84.8575 19.8311 84.4684 19.8311H73.6601C73.271 19.8311 72.9835 19.6957 72.7974 19.4251C72.6114 19.1545 72.5183 18.8331 72.5183 18.461C72.5183 18.0889 72.6114 17.7675 72.7974 17.4969C72.9835 17.2262 73.271 17.0909 73.6601 17.0909H86.143C86.9549 17.0909 87.513 17.2431 87.8175 17.5476C88.1389 17.8521 88.2996 18.4018 88.2996 19.1968V24.7532C88.2996 25.2268 88.1304 25.5735 87.7921 25.7934C87.4708 26.0133 87.0986 26.1233 86.6758 26.1233C86.2529 26.1233 85.8723 26.0133 85.534 25.7934C85.2127 25.5735 85.052 25.2268 85.052 24.7532V20.4146ZM116.771 3.79611C117.16 3.79611 117.439 3.93143 117.608 4.20206C117.794 4.45578 117.887 4.7687 117.887 5.14081C117.887 5.51293 117.794 5.83431 117.608 6.10494C117.439 6.35866 117.16 6.48552 116.771 6.48552H114.716V12.8031H116.872C117.261 12.8031 117.54 12.9384 117.709 13.209C117.895 13.4628 117.988 13.7757 117.988 14.1478C117.988 14.5199 117.895 14.8413 117.709 15.1119C117.54 15.3656 117.261 15.4925 116.872 15.4925H101.903C101.514 15.4925 101.226 15.3656 101.04 15.1119C100.871 14.8413 100.786 14.5199 100.786 14.1478C100.786 13.7757 100.871 13.4628 101.04 13.209C101.226 12.9384 101.514 12.8031 101.903 12.8031H104.059V6.48552H102.004C101.615 6.48552 101.328 6.35866 101.142 6.10494C100.972 5.83431 100.888 5.51293 100.888 5.14081C100.888 4.7687 100.972 4.45578 101.142 4.20206C101.328 3.93143 101.615 3.79611 102.004 3.79611H116.771ZM107.205 12.8031H111.569V6.48552H107.205V12.8031ZM99.7969 22.3682C99.4079 22.3682 99.1204 22.2329 98.9343 21.9623C98.7482 21.6917 98.6552 21.3703 98.6552 20.9982C98.6552 20.626 98.7482 20.3047 98.9343 20.034C99.1204 19.7634 99.4079 19.6281 99.7969 19.6281H107.764V14.0463H111.011V19.6281H118.978C119.367 19.6281 119.655 19.7634 119.841 20.034C120.027 20.3047 120.12 20.626 120.12 20.9982C120.12 21.3703 120.027 21.6917 119.841 21.9623C119.655 22.2329 119.367 22.3682 118.978 22.3682H99.7969ZM123.168 5.26767C123.168 4.47269 123.321 3.92297 123.625 3.61851C123.946 3.31405 124.513 3.16182 125.325 3.16182H133.216C133.588 3.16182 133.858 3.29713 134.027 3.56776C134.197 3.8384 134.281 4.14286 134.281 4.48115C134.281 4.81944 134.197 5.1239 134.027 5.39453C133.858 5.66516 133.588 5.80048 133.216 5.80048H126.923C126.534 5.80048 126.34 5.995 126.34 6.38403V7.52576H132.15C132.522 7.52576 132.793 7.66108 132.962 7.93171C133.148 8.18543 133.241 8.48143 133.241 8.81972C133.241 9.15801 133.148 9.46247 132.962 9.7331C132.793 9.98682 132.522 10.1137 132.15 10.1137H126.34V11.2808C126.34 11.6698 126.534 11.8643 126.923 11.8643C128.412 11.8643 129.807 11.8305 131.11 11.7628C132.429 11.6783 133.706 11.5514 134.941 11.3823C135.33 11.3315 135.634 11.4246 135.854 11.6614C136.091 11.8812 136.226 12.1603 136.26 12.4986C136.294 12.8538 136.243 13.1837 136.108 13.4881C135.973 13.7757 135.719 13.9448 135.347 13.9956C134.822 14.0632 134.239 14.1309 133.596 14.1985C132.97 14.2493 132.251 14.3 131.439 14.3508C130.628 14.4015 129.714 14.4438 128.699 14.4776C127.701 14.4945 126.577 14.503 125.325 14.503C124.513 14.503 123.946 14.3508 123.625 14.0463C123.321 13.7418 123.168 13.1921 123.168 12.3971V5.26767ZM138.366 9.63162H135.575C135.169 9.63162 134.873 9.4963 134.687 9.22567C134.501 8.95504 134.408 8.6252 134.408 8.23617C134.408 7.84713 134.501 7.5173 134.687 7.24667C134.873 6.97604 135.169 6.84072 135.575 6.84072H138.366V3.64388C138.366 3.17027 138.527 2.82353 138.848 2.60364C139.186 2.38375 139.567 2.27381 139.99 2.27381C140.396 2.27381 140.759 2.38375 141.081 2.60364C141.419 2.82353 141.588 3.17027 141.588 3.64388V13.5135C141.588 13.9871 141.419 14.3338 141.081 14.5537C140.759 14.7736 140.396 14.8836 139.99 14.8836C139.567 14.8836 139.186 14.7736 138.848 14.5537C138.527 14.3338 138.366 13.9871 138.366 13.5135V9.63162ZM139.432 15.8223C140.243 15.8223 140.802 15.9746 141.106 16.279C141.427 16.5835 141.588 17.1332 141.588 17.9282V19.9579C141.588 20.7529 141.427 21.3026 141.106 21.6071C140.802 21.9115 140.243 22.0638 139.432 22.0638H129.79C129.537 22.0638 129.41 22.1906 129.41 22.4444V23.0533C129.41 23.307 129.537 23.4339 129.79 23.4339H141.055C141.411 23.4339 141.673 23.5607 141.842 23.8144C142.011 24.0681 142.096 24.3557 142.096 24.6771C142.096 25.0154 142.011 25.3114 141.842 25.5651C141.673 25.8188 141.411 25.9457 141.055 25.9457H128.42C127.608 25.9457 127.042 25.7934 126.72 25.489C126.416 25.1845 126.264 24.6348 126.264 23.8398V21.7847C126.264 20.9897 126.416 20.44 126.72 20.1355C127.042 19.8311 127.608 19.6788 128.42 19.6788H138.062C138.315 19.6788 138.442 19.552 138.442 19.2983V18.7147C138.442 18.461 138.315 18.3341 138.062 18.3341H127.253C126.898 18.3341 126.636 18.2073 126.467 17.9536C126.297 17.6998 126.213 17.4038 126.213 17.0655C126.213 16.7442 126.297 16.4566 126.467 16.2029C126.636 15.9492 126.898 15.8223 127.253 15.8223H139.432Z" fill="#333333"/>
<path opacity="0.8" d="M154.304 8.7807C154.028 8.7807 153.824 8.68469 153.692 8.49269C153.56 8.30069 153.494 8.06669 153.494 7.79069C153.494 7.51469 153.56 7.28069 153.692 7.08869C153.824 6.89669 154.028 6.80069 154.304 6.80069H160.442C161.018 6.80069 161.414 6.90869 161.63 7.12469C161.858 7.3407 161.972 7.7307 161.972 8.29469V9.73469C161.972 10.1787 161.948 10.6107 161.9 11.0307C161.852 11.4387 161.78 11.8167 161.684 12.1647C161.588 12.4767 161.408 12.6927 161.144 12.8127C160.88 12.9207 160.592 12.9387 160.28 12.8667C159.992 12.8067 159.764 12.6807 159.596 12.4887C159.44 12.2847 159.398 12.0207 159.47 11.6967C159.614 11.0127 159.686 10.3407 159.686 9.6807V9.1947C159.686 8.9187 159.548 8.7807 159.272 8.7807H154.304ZM165.896 10.7967H167.354C167.642 10.7967 167.852 10.8927 167.984 11.0847C168.116 11.2767 168.182 11.5107 168.182 11.7867C168.182 12.0627 168.116 12.3027 167.984 12.5067C167.852 12.6987 167.642 12.7947 167.354 12.7947H165.896V17.6007C165.896 17.9247 165.782 18.1647 165.554 18.3207C165.326 18.4767 165.062 18.5547 164.762 18.5547C164.462 18.5547 164.198 18.4767 163.97 18.3207C163.742 18.1647 163.628 17.9247 163.628 17.6007V6.87269C163.628 6.54869 163.742 6.30869 163.97 6.15269C164.198 5.99669 164.462 5.91869 164.762 5.91869C165.062 5.91869 165.326 5.99669 165.554 6.15269C165.782 6.30869 165.896 6.54869 165.896 6.87269V10.7967ZM162.224 15.8187C161.648 15.8667 161.012 15.9087 160.316 15.9447C159.62 15.9807 158.888 16.0167 158.12 16.0527C157.364 16.0767 156.578 16.0947 155.762 16.1067C154.958 16.1187 154.148 16.1247 153.332 16.1247C153.056 16.1247 152.852 16.0287 152.72 15.8367C152.588 15.6447 152.522 15.4167 152.522 15.1527C152.522 14.8887 152.588 14.6607 152.72 14.4687C152.852 14.2767 153.056 14.1807 153.332 14.1807C153.68 14.1807 154.034 14.1867 154.394 14.1987C154.754 14.1987 155.114 14.1927 155.474 14.1807V11.6427C155.474 11.3067 155.588 11.0607 155.816 10.9047C156.056 10.7487 156.32 10.6707 156.608 10.6707C156.896 10.6707 157.154 10.7487 157.382 10.9047C157.622 11.0607 157.742 11.3067 157.742 11.6427V14.1447C158.474 14.1207 159.194 14.0907 159.902 14.0547C160.622 14.0187 161.342 13.9707 162.062 13.9107C162.338 13.8867 162.542 13.9587 162.674 14.1267C162.818 14.2947 162.902 14.5167 162.926 14.7927C162.95 15.0327 162.908 15.2607 162.8 15.4767C162.692 15.6807 162.5 15.7947 162.224 15.8187ZM165.482 20.5707C165.758 20.5707 165.962 20.6667 166.094 20.8587C166.226 21.0507 166.292 21.2787 166.292 21.5427C166.292 21.8067 166.226 22.0347 166.094 22.2267C165.962 22.4187 165.758 22.5147 165.482 22.5147H156.392C155.816 22.5147 155.414 22.4067 155.186 22.1907C154.97 21.9747 154.862 21.5847 154.862 21.0207V18.2667C154.862 17.9307 154.976 17.6847 155.204 17.5287C155.444 17.3727 155.72 17.2947 156.032 17.2947C156.332 17.2947 156.596 17.3727 156.824 17.5287C157.064 17.6847 157.184 17.9307 157.184 18.2667V20.1567C157.184 20.4327 157.322 20.5707 157.598 20.5707H165.482ZM170.867 8.96069C170.591 8.96069 170.387 8.86469 170.255 8.67269C170.123 8.48069 170.057 8.25269 170.057 7.98869C170.057 7.72469 170.123 7.49669 170.255 7.30469C170.387 7.11269 170.591 7.01669 170.867 7.01669H176.231C176.807 7.01669 177.203 7.12469 177.419 7.34069C177.647 7.55669 177.761 7.94669 177.761 8.51069V11.8587C177.761 12.4227 177.647 12.8127 177.419 13.0287C177.203 13.2447 176.807 13.3527 176.231 13.3527H172.757C172.481 13.3527 172.343 13.4907 172.343 13.7667V15.5487C172.343 15.8247 172.481 15.9627 172.757 15.9627C173.885 15.9627 174.923 15.9387 175.871 15.8907C176.819 15.8307 177.731 15.7407 178.607 15.6207C178.883 15.5847 179.099 15.6507 179.255 15.8187C179.423 15.9867 179.519 16.1967 179.543 16.4487C179.567 16.7247 179.531 16.9707 179.435 17.1867C179.339 17.3907 179.159 17.5107 178.895 17.5467C178.523 17.5947 178.109 17.6427 177.653 17.6907C177.197 17.7267 176.675 17.7627 176.087 17.7987C175.511 17.8347 174.851 17.8647 174.107 17.8887C173.375 17.9007 172.541 17.9067 171.605 17.9067C171.029 17.9067 170.627 17.7987 170.399 17.5827C170.183 17.3667 170.075 16.9767 170.075 16.4127V12.9747C170.075 12.4107 170.183 12.0207 170.399 11.8047C170.627 11.5887 171.029 11.4807 171.605 11.4807H175.079C175.355 11.4807 175.493 11.3427 175.493 11.0667V9.37469C175.493 9.09869 175.355 8.96069 175.079 8.96069H170.867ZM182.927 20.6787C182.927 21.0147 182.807 21.2607 182.567 21.4167C182.339 21.5727 182.069 21.6507 181.757 21.6507C181.457 21.6507 181.187 21.5727 180.947 21.4167C180.719 21.2607 180.605 21.0147 180.605 20.6787V6.89069C180.605 6.55469 180.719 6.30869 180.947 6.15269C181.187 5.99669 181.457 5.91869 181.757 5.91869C182.069 5.91869 182.339 5.99669 182.567 6.15269C182.807 6.30869 182.927 6.55469 182.927 6.89069V20.6787ZM191.84 9.12269V10.4547C191.84 10.8387 191.858 11.1867 191.894 11.4987C191.942 11.8107 192.014 12.0987 192.11 12.3627C192.218 12.6267 192.356 12.8847 192.524 13.1367C192.692 13.3767 192.902 13.6227 193.154 13.8747C193.502 14.2227 193.838 14.5527 194.162 14.8647C194.486 15.1767 194.786 15.4527 195.062 15.6927C195.29 15.8967 195.38 16.1367 195.332 16.4127C195.296 16.6887 195.188 16.9227 195.008 17.1147C194.828 17.2947 194.606 17.4147 194.342 17.4747C194.078 17.5227 193.838 17.4507 193.622 17.2587C193.382 17.0547 193.118 16.8147 192.83 16.5387C192.542 16.2507 192.236 15.9447 191.912 15.6207C191.444 15.1527 191.132 14.7987 190.976 14.5587C190.82 14.3067 190.724 14.0967 190.688 13.9287H190.67C190.646 14.0367 190.61 14.1447 190.562 14.2527C190.526 14.3487 190.46 14.4687 190.364 14.6127C190.28 14.7447 190.16 14.9007 190.004 15.0807C189.848 15.2487 189.656 15.4467 189.428 15.6747C189.104 15.9987 188.78 16.3167 188.456 16.6287C188.132 16.9407 187.796 17.2467 187.448 17.5467C187.328 17.6427 187.202 17.7027 187.07 17.7267C186.938 17.7507 186.806 17.7507 186.674 17.7267C186.554 17.6907 186.434 17.6427 186.314 17.5827C186.206 17.5107 186.11 17.4267 186.026 17.3307C185.846 17.1267 185.75 16.8867 185.738 16.6107C185.726 16.3347 185.834 16.0947 186.062 15.8907C186.818 15.2307 187.526 14.5587 188.186 13.8747C188.438 13.6227 188.648 13.3767 188.816 13.1367C188.984 12.8847 189.116 12.6267 189.212 12.3627C189.32 12.0987 189.392 11.8107 189.428 11.4987C189.476 11.1867 189.5 10.8387 189.5 10.4547V9.12269H186.836C186.56 9.12269 186.356 9.02669 186.224 8.83469C186.092 8.64269 186.026 8.41469 186.026 8.15069C186.026 7.87469 186.092 7.64069 186.224 7.4487C186.356 7.25669 186.56 7.16069 186.836 7.16069H194.36C194.636 7.16069 194.84 7.25669 194.972 7.4487C195.104 7.64069 195.17 7.87469 195.17 8.15069C195.17 8.41469 195.104 8.64269 194.972 8.83469C194.84 9.02669 194.636 9.12269 194.36 9.12269H191.84ZM200.408 11.2287C200.696 11.2287 200.906 11.3247 201.038 11.5167C201.17 11.7087 201.236 11.9427 201.236 12.2187C201.236 12.4947 201.17 12.7347 201.038 12.9387C200.906 13.1307 200.696 13.2267 200.408 13.2267H198.716V20.6787C198.716 21.0147 198.596 21.2607 198.356 21.4167C198.128 21.5727 197.864 21.6507 197.564 21.6507C197.264 21.6507 196.994 21.5727 196.754 21.4167C196.526 21.2607 196.412 21.0147 196.412 20.6787V6.89069C196.412 6.55469 196.526 6.30869 196.754 6.15269C196.994 5.99669 197.264 5.91869 197.564 5.91869C197.864 5.91869 198.128 5.99669 198.356 6.15269C198.596 6.30869 198.716 6.55469 198.716 6.89069V11.2287H200.408Z" fill="#333333"/>
<rect width="4.26667" height="20.4508" rx="2.13334" transform="matrix(-1 0 0 1 35.3242 7.53467)" fill="#0B468B"/>
<rect width="5.78804" height="5.73595" rx="2.86797" transform="matrix(1.18175e-08 -1 -1 -1.20332e-08 36.0605 5.78809)" fill="#A2C5FF"/>
<rect width="4.27395" height="27.9843" rx="2.13698" transform="matrix(0.900036 0.435815 0.429456 -0.903088 0 26.0867)" fill="#0B468B"/>
<rect x="-0.537292" y="-0.18884" width="3.46569" height="27.1761" rx="1.73284" transform="matrix(-0.900036 0.435815 -0.429456 -0.903088 25.0562 25.9615)" fill="#A2C5FF" stroke="#A2C5FF" stroke-width="0.808267"/>
<path opacity="0.8" d="M13.0351 1.53516C13.3389 1.53824 13.6471 1.60456 13.9394 1.74609C15.0014 2.26043 15.4517 3.54076 14.9453 4.60645L13.0771 8.53418L11.209 4.60645C10.7025 3.54074 11.1528 2.26042 12.2148 1.74609C12.4802 1.61758 12.7587 1.54897 13.0351 1.53516Z" fill="#A2C5FF"/>
</svg>
