<svg width="240" height="29" viewBox="0 0 240 29" fill="none" xmlns="http://www.w3.org/2000/svg">
<path opacity="0.8" d="M191.956 8.31072C191.68 8.31072 191.476 8.21472 191.344 8.02272C191.212 7.83072 191.146 7.59672 191.146 7.32072C191.146 7.04472 191.212 6.81072 191.344 6.61872C191.476 6.42672 191.68 6.33072 191.956 6.33072H198.094C198.67 6.33072 199.066 6.43872 199.282 6.65472C199.51 6.87072 199.624 7.26072 199.624 7.82472V9.26472C199.624 9.70872 199.6 10.1407 199.552 10.5607C199.504 10.9687 199.432 11.3467 199.336 11.6947C199.24 12.0067 199.06 12.2227 198.796 12.3427C198.532 12.4507 198.244 12.4687 197.932 12.3967C197.644 12.3367 197.416 12.2107 197.248 12.0187C197.092 11.8147 197.05 11.5507 197.122 11.2267C197.266 10.5427 197.338 9.87072 197.338 9.21072V8.72472C197.338 8.44872 197.2 8.31072 196.924 8.31072H191.956ZM203.548 10.3267H205.006C205.294 10.3267 205.504 10.4227 205.636 10.6147C205.768 10.8067 205.834 11.0407 205.834 11.3167C205.834 11.5927 205.768 11.8327 205.636 12.0367C205.504 12.2287 205.294 12.3247 205.006 12.3247H203.548V17.1307C203.548 17.4547 203.434 17.6947 203.206 17.8507C202.978 18.0067 202.714 18.0847 202.414 18.0847C202.114 18.0847 201.85 18.0067 201.622 17.8507C201.394 17.6947 201.28 17.4547 201.28 17.1307V6.40272C201.28 6.07872 201.394 5.83872 201.622 5.68272C201.85 5.52672 202.114 5.44872 202.414 5.44872C202.714 5.44872 202.978 5.52672 203.206 5.68272C203.434 5.83872 203.548 6.07872 203.548 6.40272V10.3267ZM199.876 15.3487C199.3 15.3967 198.664 15.4387 197.968 15.4747C197.272 15.5107 196.54 15.5467 195.772 15.5827C195.016 15.6067 194.23 15.6247 193.414 15.6367C192.61 15.6487 191.8 15.6547 190.984 15.6547C190.708 15.6547 190.504 15.5587 190.372 15.3667C190.24 15.1747 190.174 14.9467 190.174 14.6827C190.174 14.4187 190.24 14.1907 190.372 13.9987C190.504 13.8067 190.708 13.7107 190.984 13.7107C191.332 13.7107 191.686 13.7167 192.046 13.7287C192.406 13.7287 192.766 13.7227 193.126 13.7107V11.1727C193.126 10.8367 193.24 10.5907 193.468 10.4347C193.708 10.2787 193.972 10.2007 194.26 10.2007C194.548 10.2007 194.806 10.2787 195.034 10.4347C195.274 10.5907 195.394 10.8367 195.394 11.1727V13.6747C196.126 13.6507 196.846 13.6207 197.554 13.5847C198.274 13.5487 198.994 13.5007 199.714 13.4407C199.99 13.4167 200.194 13.4887 200.326 13.6567C200.47 13.8247 200.554 14.0467 200.578 14.3227C200.602 14.5627 200.56 14.7907 200.452 15.0067C200.344 15.2107 200.152 15.3247 199.876 15.3487ZM203.134 20.1007C203.41 20.1007 203.614 20.1967 203.746 20.3887C203.878 20.5807 203.944 20.8087 203.944 21.0727C203.944 21.3367 203.878 21.5647 203.746 21.7567C203.614 21.9487 203.41 22.0447 203.134 22.0447H194.044C193.468 22.0447 193.066 21.9367 192.838 21.7207C192.622 21.5047 192.514 21.1147 192.514 20.5507V17.7967C192.514 17.4607 192.628 17.2147 192.856 17.0587C193.096 16.9027 193.372 16.8247 193.684 16.8247C193.984 16.8247 194.248 16.9027 194.476 17.0587C194.716 17.2147 194.836 17.4607 194.836 17.7967V19.6867C194.836 19.9627 194.974 20.1007 195.25 20.1007H203.134ZM208.519 8.49072C208.243 8.49072 208.039 8.39472 207.907 8.20272C207.775 8.01072 207.709 7.78272 207.709 7.51872C207.709 7.25472 207.775 7.02672 207.907 6.83472C208.039 6.64272 208.243 6.54672 208.519 6.54672H213.883C214.459 6.54672 214.855 6.65472 215.071 6.87072C215.299 7.08672 215.413 7.47672 215.413 8.04072V11.3887C215.413 11.9527 215.299 12.3427 215.071 12.5587C214.855 12.7747 214.459 12.8827 213.883 12.8827H210.409C210.133 12.8827 209.995 13.0207 209.995 13.2967V15.0787C209.995 15.3547 210.133 15.4927 210.409 15.4927C211.537 15.4927 212.575 15.4687 213.523 15.4207C214.471 15.3607 215.383 15.2707 216.259 15.1507C216.535 15.1147 216.751 15.1807 216.907 15.3487C217.075 15.5167 217.171 15.7267 217.195 15.9787C217.219 16.2547 217.183 16.5007 217.087 16.7167C216.991 16.9207 216.811 17.0407 216.547 17.0767C216.175 17.1247 215.761 17.1727 215.305 17.2207C214.849 17.2567 214.327 17.2927 213.739 17.3287C213.163 17.3647 212.503 17.3947 211.759 17.4187C211.027 17.4307 210.193 17.4367 209.257 17.4367C208.681 17.4367 208.279 17.3287 208.051 17.1127C207.835 16.8967 207.727 16.5067 207.727 15.9427V12.5047C207.727 11.9407 207.835 11.5507 208.051 11.3347C208.279 11.1187 208.681 11.0107 209.257 11.0107H212.731C213.007 11.0107 213.145 10.8727 213.145 10.5967V8.90472C213.145 8.62872 213.007 8.49072 212.731 8.49072H208.519ZM220.579 20.2087C220.579 20.5447 220.459 20.7907 220.219 20.9467C219.991 21.1027 219.721 21.1807 219.409 21.1807C219.109 21.1807 218.839 21.1027 218.599 20.9467C218.371 20.7907 218.257 20.5447 218.257 20.2087V6.42072C218.257 6.08472 218.371 5.83872 218.599 5.68272C218.839 5.52672 219.109 5.44872 219.409 5.44872C219.721 5.44872 219.991 5.52672 220.219 5.68272C220.459 5.83872 220.579 6.08472 220.579 6.42072V20.2087ZM229.492 8.65272V9.98472C229.492 10.3687 229.51 10.7167 229.546 11.0287C229.594 11.3407 229.666 11.6287 229.762 11.8927C229.87 12.1567 230.008 12.4147 230.176 12.6667C230.344 12.9067 230.554 13.1527 230.806 13.4047C231.154 13.7527 231.49 14.0827 231.814 14.3947C232.138 14.7067 232.438 14.9827 232.714 15.2227C232.942 15.4267 233.032 15.6667 232.984 15.9427C232.948 16.2187 232.84 16.4527 232.66 16.6447C232.48 16.8247 232.258 16.9447 231.994 17.0047C231.73 17.0527 231.49 16.9807 231.274 16.7887C231.034 16.5847 230.77 16.3447 230.482 16.0687C230.194 15.7807 229.888 15.4747 229.564 15.1507C229.096 14.6827 228.784 14.3287 228.628 14.0887C228.472 13.8367 228.376 13.6267 228.34 13.4587H228.322C228.298 13.5667 228.262 13.6747 228.214 13.7827C228.178 13.8787 228.112 13.9987 228.016 14.1427C227.932 14.2747 227.812 14.4307 227.656 14.6107C227.5 14.7787 227.308 14.9767 227.08 15.2047C226.756 15.5287 226.432 15.8467 226.108 16.1587C225.784 16.4707 225.448 16.7767 225.1 17.0767C224.98 17.1727 224.854 17.2327 224.722 17.2567C224.59 17.2807 224.458 17.2807 224.326 17.2567C224.206 17.2207 224.086 17.1727 223.966 17.1127C223.858 17.0407 223.762 16.9567 223.678 16.8607C223.498 16.6567 223.402 16.4167 223.39 16.1407C223.378 15.8647 223.486 15.6247 223.714 15.4207C224.47 14.7607 225.178 14.0887 225.838 13.4047C226.09 13.1527 226.3 12.9067 226.468 12.6667C226.636 12.4147 226.768 12.1567 226.864 11.8927C226.972 11.6287 227.044 11.3407 227.08 11.0287C227.128 10.7167 227.152 10.3687 227.152 9.98472V8.65272H224.488C224.212 8.65272 224.008 8.55672 223.876 8.36472C223.744 8.17272 223.678 7.94472 223.678 7.68072C223.678 7.40472 223.744 7.17072 223.876 6.97872C224.008 6.78672 224.212 6.69072 224.488 6.69072H232.012C232.288 6.69072 232.492 6.78672 232.624 6.97872C232.756 7.17072 232.822 7.40472 232.822 7.68072C232.822 7.94472 232.756 8.17272 232.624 8.36472C232.492 8.55672 232.288 8.65272 232.012 8.65272H229.492ZM238.06 10.7587C238.348 10.7587 238.558 10.8547 238.69 11.0467C238.822 11.2387 238.888 11.4727 238.888 11.7487C238.888 12.0247 238.822 12.2647 238.69 12.4687C238.558 12.6607 238.348 12.7567 238.06 12.7567H236.368V20.2087C236.368 20.5447 236.248 20.7907 236.008 20.9467C235.78 21.1027 235.516 21.1807 235.216 21.1807C234.916 21.1807 234.646 21.1027 234.406 20.9467C234.178 20.7907 234.064 20.5447 234.064 20.2087V6.42072C234.064 6.08472 234.178 5.83872 234.406 5.68272C234.646 5.52672 234.916 5.44872 235.216 5.44872C235.516 5.44872 235.78 5.52672 236.008 5.68272C236.248 5.83872 236.368 6.08472 236.368 6.42072V10.7587H238.06Z" fill="#333333"/>
<path d="M8.1119 15.1779C7.13152 15.1779 6.26972 15.0514 5.52653 14.7984C4.79915 14.5296 4.19036 14.1659 3.70017 13.7074C3.20997 13.2488 2.83837 12.7033 2.58537 12.0708C2.33237 11.4224 2.20587 10.7188 2.20587 9.95976C2.20587 9.20075 2.33237 8.50499 2.58537 7.87249C2.83837 7.22417 3.20997 6.67072 3.70017 6.21215C4.19036 5.75359 4.79915 5.3978 5.52653 5.1448C6.26972 4.87598 7.13152 4.74158 8.1119 4.74158C9.07647 4.74158 9.93036 4.87598 10.6736 5.1448C11.4168 5.3978 12.0334 5.75359 12.5236 6.21215C13.0138 6.67072 13.3854 7.22417 13.6384 7.87249C13.8914 8.50499 14.0179 9.20075 14.0179 9.95976C14.0179 10.7188 13.8914 11.4224 13.6384 12.0708C13.3854 12.7033 13.0138 13.2488 12.5236 13.7074C12.0334 14.1659 11.4168 14.5296 10.6736 14.7984C9.93036 15.0514 9.07647 15.1779 8.1119 15.1779ZM8.1119 7.25579C7.06827 7.25579 6.30135 7.50879 5.81116 8.0148C5.32096 8.50499 5.07587 9.15331 5.07587 9.95976C5.07587 10.7662 5.32096 11.4224 5.81116 11.9284C6.30135 12.4186 7.06827 12.6637 8.1119 12.6637C9.15554 12.6637 9.92245 12.4186 10.4126 11.9284C10.9028 11.4224 11.1479 10.7662 11.1479 9.95976C11.1479 9.15331 10.9028 8.50499 10.4126 8.0148C9.92245 7.50879 9.15554 7.25579 8.1119 7.25579ZM16.3424 4.88389C16.3424 4.44114 16.4926 4.11698 16.7931 3.91141C17.1093 3.70585 17.4651 3.60306 17.8604 3.60306C18.2399 3.60306 18.5799 3.70585 18.8803 3.91141C19.1966 4.11698 19.3547 4.44114 19.3547 4.88389V23.0527C19.3547 23.4954 19.1966 23.8196 18.8803 24.0251C18.5799 24.2307 18.2399 24.3335 17.8604 24.3335C17.4651 24.3335 17.1093 24.2307 16.7931 24.0251C16.4926 23.8196 16.3424 23.4954 16.3424 23.0527V4.88389ZM14.4923 20.325C13.7017 20.404 12.8241 20.4752 11.8595 20.5384C10.8949 20.5859 9.87501 20.6254 8.79975 20.657C7.7403 20.6887 6.64132 20.7203 5.50281 20.7519C4.3643 20.7677 3.22579 20.7756 2.08727 20.7756C1.72358 20.7756 1.45477 20.6491 1.28083 20.3961C1.10689 20.1431 1.01992 19.8427 1.01992 19.4948C1.01992 19.1469 1.10689 18.8465 1.28083 18.5935C1.45477 18.3405 1.72358 18.214 2.08727 18.214C2.84628 18.214 3.59738 18.214 4.34058 18.214C5.09959 18.214 5.8665 18.2061 6.64132 18.1903V13.399H9.62992V18.0954C11.1796 18.0479 12.7292 17.9531 14.2788 17.8108C14.6425 17.7791 14.9114 17.874 15.0853 18.0954C15.275 18.3168 15.3857 18.6014 15.4174 18.9493C15.449 19.2813 15.3936 19.5897 15.2513 19.8743C15.109 20.1431 14.856 20.2933 14.4923 20.325ZM25.9286 7.73017C25.5649 7.73017 25.2961 7.60367 25.1221 7.35067C24.9482 7.09766 24.8612 6.78932 24.8612 6.42563C24.8612 6.06193 24.9482 5.75359 25.1221 5.50059C25.2961 5.24758 25.5649 5.12108 25.9286 5.12108H38.2625C39.0215 5.12108 39.5433 5.26339 39.8279 5.54802C40.1284 5.83265 40.2786 6.34656 40.2786 7.08976V9.22447C40.2786 10.6792 40.2232 11.968 40.1126 13.0907C40.0177 14.2134 39.8595 15.2728 39.6382 16.269C39.5433 16.696 39.314 16.9885 38.9503 17.1466C38.6024 17.3047 38.215 17.3443 37.7881 17.2652C37.4244 17.1862 37.124 17.028 36.8868 16.7908C36.6654 16.5536 36.5942 16.2216 36.6733 15.7946C36.8789 14.7984 37.0291 13.7627 37.124 12.6874C37.2188 11.6122 37.2663 10.4341 37.2663 9.15331V8.27571C37.2663 7.91202 37.0844 7.73017 36.7207 7.73017H25.9286ZM31.9532 19.8506V13.6125C31.9532 13.2014 32.1034 12.9009 32.4039 12.7112C32.7043 12.5056 33.0364 12.4028 33.4001 12.4028C33.7638 12.4028 34.0958 12.5056 34.3963 12.7112C34.6967 12.9009 34.8469 13.2014 34.8469 13.6125V19.8506H41.5831C41.9468 19.8506 42.2156 19.9771 42.3896 20.2301C42.5635 20.4831 42.6505 20.7756 42.6505 21.1077C42.6505 21.4556 42.5635 21.756 42.3896 22.009C42.2156 22.262 41.9468 22.3885 41.5831 22.3885H23.6516C23.2879 22.3885 23.0191 22.262 22.8451 22.009C22.6712 21.756 22.5842 21.4556 22.5842 21.1077C22.5842 20.7756 22.6712 20.4831 22.8451 20.2301C23.0191 19.9771 23.2879 19.8506 23.6516 19.8506H26.9248V13.6125C26.9248 13.2014 27.075 12.9009 27.3754 12.7112C27.6759 12.5056 28.008 12.4028 28.3716 12.4028C28.7353 12.4028 29.0674 12.5056 29.3678 12.7112C29.6683 12.9009 29.8185 13.2014 29.8185 13.6125V19.8506H31.9532Z" fill="#333333"/>
<rect width="4.08825" height="19.1769" rx="2.04412" transform="matrix(-1 0 0 1 83.8555 8.4436)" fill="#3B82F6"/>
<rect width="5.4275" height="5.49608" rx="2.71375" transform="matrix(1.20756e-08 -1 -1 -1.17761e-08 84.5605 6.80591)" fill="#333333"/>
<rect width="4.07875" height="26.3478" rx="2.03937" transform="matrix(0.903672 0.428226 0.437057 -0.899434 50.0078 25.8154)" fill="#3B82F6"/>
<rect x="-0.515578" y="-0.181203" width="3.30965" height="25.5787" rx="1.65482" transform="matrix(-0.903672 0.428226 -0.437057 -0.899434 74.0116 25.692)" fill="#333333" stroke="#333333" stroke-width="0.769101"/>
<path opacity="0.8" d="M62.4918 2.79565C62.785 2.7964 63.0823 2.85853 63.3639 2.99194C64.3816 3.47424 64.8072 4.68597 64.315 5.69897L62.5367 9.35815L60.7584 5.69897C60.2663 4.686 60.6919 3.47426 61.7096 2.99194C61.9624 2.87215 62.2279 2.80791 62.4918 2.79565Z" fill="#333333"/>
<path d="M108.747 10.4469C108.747 11.1901 108.597 11.704 108.297 11.9887C108.012 12.2733 107.49 12.4156 106.731 12.4156H95.9155C95.1565 12.4156 94.6267 12.2733 94.3263 11.9887C94.0417 11.704 93.8993 11.1901 93.8993 10.4469V4.6595C93.8993 4.24837 94.0496 3.94003 94.35 3.73446C94.6663 3.5289 95.0062 3.42611 95.3699 3.42611C95.7494 3.42611 96.0894 3.5289 96.3898 3.73446C96.7061 3.94003 96.8642 4.24837 96.8642 4.6595V5.96405H105.783V4.6595C105.783 4.24837 105.933 3.94003 106.233 3.73446C106.549 3.5289 106.889 3.42611 107.253 3.42611C107.633 3.42611 107.973 3.5289 108.273 3.73446C108.589 3.94003 108.747 4.24837 108.747 4.6595V10.4469ZM105.427 9.94884C105.664 9.94884 105.783 9.83025 105.783 9.59306V8.43083H96.8642V9.59306C96.8642 9.83025 96.9828 9.94884 97.22 9.94884H105.427ZM92.3576 16.6376C91.9939 16.6376 91.7251 16.5111 91.5512 16.2581C91.3772 16.0051 91.2903 15.7126 91.2903 15.3805C91.2903 15.0326 91.3772 14.7322 91.5512 14.4792C91.7251 14.2262 91.9939 14.0997 92.3576 14.0997H110.289C110.653 14.0997 110.922 14.2262 111.096 14.4792C111.27 14.7322 111.357 15.0326 111.357 15.3805C111.357 15.7126 111.27 16.0051 111.096 16.2581C110.922 16.5111 110.653 16.6376 110.289 16.6376H103.15V19.1993C103.15 19.6104 103 19.9108 102.699 20.1006C102.414 20.2745 102.059 20.3615 101.632 20.3615C101.221 20.3615 100.865 20.2745 100.564 20.1006C100.28 19.9108 100.137 19.6104 100.137 19.1993V16.6376H92.3576ZM108.107 22.2827C108.471 22.2827 108.74 22.4092 108.913 22.6622C109.087 22.9152 109.174 23.2157 109.174 23.5636C109.174 23.9114 109.087 24.2119 108.913 24.4649C108.74 24.7179 108.471 24.8444 108.107 24.8444H95.868C95.109 24.8444 94.5793 24.7021 94.2789 24.4174C93.9942 24.1328 93.8519 23.6189 93.8519 22.8757V19.389C93.8519 18.9463 94.0021 18.6221 94.3026 18.4165C94.6188 18.211 94.9825 18.1082 95.3936 18.1082C95.789 18.1082 96.1368 18.211 96.4373 18.4165C96.7535 18.6221 96.9117 18.9463 96.9117 19.389V21.7372C96.9117 22.1009 97.0935 22.2827 97.4572 22.2827H108.107ZM121.417 7.00769C121.417 7.71925 121.52 8.32804 121.725 8.83405C121.947 9.34005 122.311 9.81443 122.817 10.2572C123.338 10.6999 123.821 11.0953 124.263 11.4431C124.706 11.791 125.109 12.0994 125.473 12.3682C125.805 12.6054 125.971 12.8979 125.971 13.2458C125.987 13.5779 125.884 13.8941 125.663 14.1945C125.489 14.4475 125.228 14.6373 124.88 14.7638C124.532 14.8903 124.176 14.8271 123.813 14.574C123.528 14.3685 123.172 14.1076 122.745 13.7913C122.334 13.4593 121.899 13.0956 121.441 12.7002C120.887 12.2417 120.508 11.8938 120.302 11.6566C120.113 11.4036 119.986 11.1664 119.923 10.945H119.899C119.867 11.0715 119.82 11.2059 119.757 11.3483C119.694 11.4748 119.599 11.6171 119.472 11.7752C119.361 11.9175 119.211 12.0756 119.021 12.2496C118.832 12.4235 118.595 12.6291 118.31 12.8663C117.393 13.6411 116.484 14.3527 115.582 15.001C115.234 15.254 114.879 15.3172 114.515 15.1907C114.167 15.0642 113.906 14.8745 113.732 14.6215C113.527 14.3369 113.416 14.0127 113.4 13.649C113.4 13.2853 113.582 12.9691 113.946 12.7002C114.467 12.3207 114.966 11.9491 115.44 11.5855C115.914 11.2059 116.412 10.7948 116.934 10.3521C117.44 9.90931 117.796 9.43493 118.002 8.92892C118.223 8.42292 118.334 7.81413 118.334 7.10256V4.96785C118.334 4.50928 118.484 4.17722 118.784 3.97165C119.101 3.76609 119.464 3.6633 119.875 3.6633C120.287 3.6633 120.642 3.76609 120.943 3.97165C121.259 4.17722 121.417 4.50928 121.417 4.96785V7.00769ZM125.449 9.73537C125.086 9.73537 124.817 9.60887 124.643 9.35587C124.469 9.10286 124.382 8.80242 124.382 8.45454C124.382 8.09085 124.469 7.78251 124.643 7.5295C124.817 7.2765 125.086 7.15 125.449 7.15H128.414V4.20884C128.414 3.76609 128.564 3.44193 128.865 3.23636C129.181 3.0308 129.537 2.92801 129.932 2.92801C130.312 2.92801 130.652 3.0308 130.952 3.23636C131.268 3.44193 131.427 3.76609 131.427 4.20884V14.6215C131.427 15.0642 131.268 15.3884 130.952 15.594C130.652 15.7995 130.312 15.9023 129.932 15.9023C129.537 15.9023 129.181 15.7995 128.865 15.594C128.564 15.3884 128.414 15.0642 128.414 14.6215V9.73537H125.449ZM128.39 19.8871C128.39 19.5234 128.209 19.3416 127.845 19.3416H117.741C117.377 19.3416 117.108 19.2151 116.934 18.9621C116.76 18.7091 116.673 18.4086 116.673 18.0607C116.673 17.7129 116.76 17.4124 116.934 17.1594C117.108 16.9064 117.377 16.7799 117.741 16.7799H129.41C130.169 16.7799 130.691 16.9222 130.976 17.2069C131.276 17.4915 131.427 18.0054 131.427 18.7486V23.9431C131.427 24.3858 131.268 24.71 130.952 24.9155C130.652 25.1211 130.304 25.2239 129.909 25.2239C129.513 25.2239 129.157 25.1211 128.841 24.9155C128.541 24.71 128.39 24.3858 128.39 23.9431V19.8871ZM158.043 4.35116C158.407 4.35116 158.668 4.47766 158.826 4.73066C159 4.96785 159.087 5.26038 159.087 5.60826C159.087 5.95614 159 6.25658 158.826 6.50959C158.668 6.74678 158.407 6.86537 158.043 6.86537H156.122V12.7714H158.138C158.502 12.7714 158.762 12.8979 158.921 13.1509C159.095 13.3881 159.181 13.6806 159.181 14.0285C159.181 14.3764 159.095 14.6768 158.921 14.9298C158.762 15.167 158.502 15.2856 158.138 15.2856H144.144C143.78 15.2856 143.511 15.167 143.337 14.9298C143.179 14.6768 143.1 14.3764 143.1 14.0285C143.1 13.6806 143.179 13.3881 143.337 13.1509C143.511 12.8979 143.78 12.7714 144.144 12.7714H146.16V6.86537H144.239C143.875 6.86537 143.606 6.74678 143.432 6.50959C143.274 6.25658 143.195 5.95614 143.195 5.60826C143.195 5.26038 143.274 4.96785 143.432 4.73066C143.606 4.47766 143.875 4.35116 144.239 4.35116H158.043ZM149.101 12.7714H153.181V6.86537H149.101V12.7714ZM142.175 21.7135C141.811 21.7135 141.542 21.587 141.369 21.334C141.195 21.081 141.108 20.7805 141.108 20.4326C141.108 20.0848 141.195 19.7843 141.369 19.5313C141.542 19.2783 141.811 19.1518 142.175 19.1518H149.623V13.9336H152.659V19.1518H160.107C160.47 19.1518 160.739 19.2783 160.913 19.5313C161.087 19.7843 161.174 20.0848 161.174 20.4326C161.174 20.7805 161.087 21.081 160.913 21.334C160.739 21.587 160.47 21.7135 160.107 21.7135H142.175ZM164.024 5.72686C164.024 4.98366 164.166 4.46975 164.451 4.18512C164.751 3.90049 165.281 3.75818 166.04 3.75818H173.417C173.764 3.75818 174.017 3.88468 174.176 4.13768C174.334 4.39069 174.413 4.67532 174.413 4.99157C174.413 5.30782 174.334 5.59245 174.176 5.84545C174.017 6.09846 173.764 6.22496 173.417 6.22496H167.534C167.171 6.22496 166.989 6.4068 166.989 6.77049V7.83785H172.42C172.768 7.83785 173.021 7.96435 173.179 8.21735C173.353 8.45454 173.44 8.73127 173.44 9.04752C173.44 9.36377 173.353 9.6484 173.179 9.9014C173.021 10.1386 172.768 10.2572 172.42 10.2572H166.989V11.3483C166.989 11.712 167.171 11.8938 167.534 11.8938C168.926 11.8938 170.23 11.8622 171.448 11.7989C172.681 11.7199 173.875 11.6013 175.029 11.4431C175.393 11.3957 175.678 11.4827 175.883 11.704C176.105 11.9096 176.231 12.1705 176.263 12.4868C176.294 12.8188 176.247 13.1272 176.121 13.4118C175.994 13.6806 175.757 13.8388 175.409 13.8862C174.919 13.9494 174.373 14.0127 173.772 14.0759C173.187 14.1234 172.515 14.1708 171.756 14.2183C170.997 14.2657 170.143 14.3052 169.195 14.3369C168.262 14.3527 167.21 14.3606 166.04 14.3606C165.281 14.3606 164.751 14.2183 164.451 13.9336C164.166 13.649 164.024 13.1351 164.024 12.3919V5.72686ZM178.232 9.80653H175.622C175.243 9.80653 174.966 9.68003 174.792 9.42702C174.618 9.17402 174.531 8.86567 174.531 8.50198C174.531 8.13829 174.618 7.82994 174.792 7.57694C174.966 7.32394 175.243 7.19744 175.622 7.19744H178.232V4.20884C178.232 3.76609 178.382 3.44193 178.682 3.23636C178.998 3.0308 179.354 2.92801 179.75 2.92801C180.129 2.92801 180.469 3.0308 180.769 3.23636C181.086 3.44193 181.244 3.76609 181.244 4.20884V13.4355C181.244 13.8783 181.086 14.2025 180.769 14.408C180.469 14.6136 180.129 14.7164 179.75 14.7164C179.354 14.7164 178.998 14.6136 178.682 14.408C178.382 14.2025 178.232 13.8783 178.232 13.4355V9.80653ZM179.228 15.594C179.987 15.594 180.509 15.7363 180.793 16.0209C181.094 16.3055 181.244 16.8194 181.244 17.5626V19.4602C181.244 20.2034 181.094 20.7173 180.793 21.0019C180.509 21.2865 179.987 21.4288 179.228 21.4288H170.215C169.977 21.4288 169.859 21.5474 169.859 21.7846V22.3539C169.859 22.5911 169.977 22.7097 170.215 22.7097H180.746C181.078 22.7097 181.323 22.8283 181.481 23.0655C181.639 23.3026 181.718 23.5715 181.718 23.8719C181.718 24.1882 181.639 24.4649 181.481 24.7021C181.323 24.9393 181.078 25.0579 180.746 25.0579H168.934C168.175 25.0579 167.645 24.9155 167.345 24.6309C167.06 24.3463 166.918 23.8324 166.918 23.0892V21.1679C166.918 20.4247 167.06 19.9108 167.345 19.6262C167.645 19.3416 168.175 19.1993 168.934 19.1993H177.947C178.184 19.1993 178.303 19.0807 178.303 18.8435V18.2979C178.303 18.0607 178.184 17.9421 177.947 17.9421H167.843C167.511 17.9421 167.265 17.8236 167.107 17.5864C166.949 17.3492 166.87 17.0725 166.87 16.7562C166.87 16.4558 166.949 16.1869 167.107 15.9498C167.265 15.7126 167.511 15.594 167.843 15.594H179.228Z" fill="#333333"/>
</svg>
