<svg width="32" height="32" viewBox="0 0 32 32" fill="none" xmlns="http://www.w3.org/2000/svg">
<path fill-rule="evenodd" clip-rule="evenodd" d="M10.4286 2.28571C10.4286 1.94472 10.2931 1.6177 10.052 1.37658C9.81088 1.13546 9.48385 1 9.14286 1C8.80186 1 8.47484 1.13546 8.23372 1.37658C7.9926 1.6177 7.85714 1.94472 7.85714 2.28571V4.42857H7.42857C6.63292 4.42857 5.86986 4.74464 5.30725 5.30725C4.74464 5.86986 4.42857 6.63292 4.42857 7.42857V7.85714H2.28571C1.94472 7.85714 1.6177 7.9926 1.37658 8.23372C1.13546 8.47484 1 8.80186 1 9.14286C1 9.48385 1.13546 9.81088 1.37658 10.052C1.6177 10.2931 1.94472 10.4286 2.28571 10.4286H4.42857V14.7143H2.28571C1.94472 14.7143 1.6177 14.8497 1.37658 15.0909C1.13546 15.332 1 15.659 1 16C1 16.341 1.13546 16.668 1.37658 16.9091C1.6177 17.1503 1.94472 17.2857 2.28571 17.2857H4.42857V21.5714H2.28571C1.94472 21.5714 1.6177 21.7069 1.37658 21.948C1.13546 22.1891 1 22.5162 1 22.8571C1 23.1981 1.13546 23.5252 1.37658 23.7663C1.6177 24.0074 1.94472 24.1429 2.28571 24.1429H4.42857V24.5714C4.42857 26.2274 5.77257 27.5714 7.42857 27.5714H7.85714V29.7143C7.85714 30.0553 7.9926 30.3823 8.23372 30.6234C8.47484 30.8645 8.80186 31 9.14286 31C9.48385 31 9.81088 30.8645 10.052 30.6234C10.2931 30.3823 10.4286 30.0553 10.4286 29.7143V27.5714H14.7143V29.7143C14.7143 30.0553 14.8497 30.3823 15.0909 30.6234C15.332 30.8645 15.659 31 16 31C16.341 31 16.668 30.8645 16.9091 30.6234C17.1503 30.3823 17.2857 30.0553 17.2857 29.7143V27.5714H21.5714V29.7143C21.5714 30.0553 21.7069 30.3823 21.948 30.6234C22.1891 30.8645 22.5162 31 22.8571 31C23.1981 31 23.5252 30.8645 23.7663 30.6234C24.0074 30.3823 24.1429 30.0553 24.1429 29.7143V27.5714H24.5714C25.3671 27.5714 26.1301 27.2554 26.6927 26.6927C27.2554 26.1301 27.5714 25.3671 27.5714 24.5714V24.1429H29.7143C30.0553 24.1429 30.3823 24.0074 30.6234 23.7663C30.8645 23.5252 31 23.1981 31 22.8571C31 22.5162 30.8645 22.1891 30.6234 21.948C30.3823 21.7069 30.0553 21.5714 29.7143 21.5714H27.5714V17.2857H29.7143C30.0553 17.2857 30.3823 17.1503 30.6234 16.9091C30.8645 16.668 31 16.341 31 16C31 15.659 30.8645 15.332 30.6234 15.0909C30.3823 14.8497 30.0553 14.7143 29.7143 14.7143H27.5714V10.4286H29.7143C30.0553 10.4286 30.3823 10.2931 30.6234 10.052C30.8645 9.81088 31 9.48385 31 9.14286C31 8.80186 30.8645 8.47484 30.6234 8.23372C30.3823 7.9926 30.0553 7.85714 29.7143 7.85714H27.5714V7.42857C27.5714 6.63292 27.2554 5.86986 26.6927 5.30725C26.1301 4.74464 25.3671 4.42857 24.5714 4.42857H24.1429V2.28571C24.1429 1.94472 24.0074 1.6177 23.7663 1.37658C23.5252 1.13546 23.1981 1 22.8571 1C22.5162 1 22.1891 1.13546 21.948 1.37658C21.7069 1.6177 21.5714 1.94472 21.5714 2.28571V4.42857H17.2857V2.28571C17.2857 1.94472 17.1503 1.6177 16.9091 1.37658C16.668 1.13546 16.341 1 16 1C15.659 1 15.332 1.13546 15.0909 1.37658C14.8497 1.6177 14.7143 1.94472 14.7143 2.28571V4.42857H10.4286V2.28571ZM7 7.42857C7 7.31491 7.04515 7.2059 7.12553 7.12553C7.2059 7.04515 7.31491 7 7.42857 7H24.5714C24.6851 7 24.7941 7.04515 24.8745 7.12553C24.9548 7.2059 25 7.31491 25 7.42857V24.5714C25 24.6851 24.9548 24.7941 24.8745 24.8745C24.7941 24.9548 24.6851 25 24.5714 25H7.42857C7.31491 25 7.2059 24.9548 7.12553 24.8745C7.04515 24.7941 7 24.6851 7 24.5714V7.42857ZM15.6554 20.7194L15.184 19.396H11.7091L11.2377 20.7194C11.1231 21.0406 10.8857 21.3032 10.5775 21.4493C10.2694 21.5954 9.91579 21.6131 9.59457 21.4986C9.27336 21.384 9.01081 21.1465 8.86469 20.8384C8.71858 20.5302 8.70086 20.1766 8.81543 19.8554L11.7297 11.6783L11.7349 11.6629L11.7417 11.6457C12.0023 10.9737 12.6263 10.4269 13.4457 10.4269C14.2669 10.4269 14.8891 10.9737 15.1514 11.6474L15.1566 11.6629L15.1634 11.68L18.0777 19.8571C18.1867 20.177 18.1653 20.527 18.0182 20.8312C17.8712 21.1355 17.6102 21.3696 17.2919 21.483C16.9735 21.5963 16.6233 21.5797 16.317 21.4368C16.0108 21.2939 15.7731 21.0362 15.6554 20.7194ZM13.4457 14.5223L14.2669 16.8246H12.6246L13.4457 14.5223ZM19.8571 11.7109C19.8571 11.3699 19.9926 11.0428 20.2337 10.8017C20.4748 10.5606 20.8019 10.4251 21.1429 10.4251C21.4838 10.4251 21.8109 10.5606 22.052 10.8017C22.2931 11.0428 22.4286 11.3699 22.4286 11.7109V20.2874C22.4286 20.6284 22.2931 20.9554 22.052 21.1966C21.8109 21.4377 21.4838 21.5731 21.1429 21.5731C20.8019 21.5731 20.4748 21.4377 20.2337 21.1966C19.9926 20.9554 19.8571 20.6284 19.8571 20.2874V11.7109Z" fill="white"/>
</svg>
