<svg width="32" height="32" viewBox="0 0 32 32" fill="none" xmlns="http://www.w3.org/2000/svg">
<path d="M15.004 27C14.028 27.0013 13.0507 26.416 12.7667 25.244C12.6814 24.8923 12.5144 24.5656 12.2791 24.2907C12.0437 24.0157 11.7468 23.8002 11.4125 23.6617C11.0781 23.5231 10.7158 23.4655 10.355 23.4935C9.99413 23.5215 9.645 23.6343 9.336 23.8227C7.27867 25.076 4.92267 22.7213 6.176 20.6627C6.36414 20.3538 6.47673 20.0049 6.50465 19.6443C6.53256 19.2837 6.47499 18.9216 6.33663 18.5875C6.19827 18.2533 5.98301 17.9566 5.70836 17.7213C5.43371 17.486 5.10742 17.3188 4.756 17.2333C2.41467 16.6653 2.41467 13.3347 4.756 12.7667C5.10773 12.6814 5.43437 12.5144 5.70933 12.2791C5.98429 12.0437 6.19981 11.7468 6.33833 11.4125C6.47685 11.0781 6.53447 10.7158 6.50649 10.355C6.47852 9.99413 6.36574 9.645 6.17733 9.336C4.924 7.27867 7.27867 4.92267 9.33733 6.176C10.6707 6.98667 12.3987 6.26933 12.7667 4.756C13.3347 2.41467 16.6653 2.41467 17.2333 4.756C17.3186 5.10773 17.4856 5.43437 17.7209 5.70933C17.9563 5.98429 18.2532 6.19981 18.5875 6.33833C18.9219 6.47685 19.2842 6.53447 19.645 6.50649C20.0059 6.47852 20.355 6.36574 20.664 6.17733C22.7213 4.924 25.0773 7.27867 23.824 9.33733C23.6359 9.64621 23.5233 9.99512 23.4954 10.3557C23.4674 10.7163 23.525 11.0784 23.6634 11.4125C23.8017 11.7467 24.017 12.0434 24.2916 12.2787C24.5663 12.514 24.8926 12.6812 25.244 12.7667C26.4253 13.0533 27.0107 14.0427 27.0013 15.0253" stroke="white" stroke-width="2.66667" stroke-linecap="round" stroke-linejoin="round"/>
<path d="M24.3347 27C23.6274 27 22.9491 26.719 22.449 26.219C21.949 25.7189 21.668 25.0406 21.668 24.3333C21.668 23.6261 21.949 22.9478 22.449 22.4477C22.9491 21.9476 23.6274 21.6667 24.3347 21.6667M24.3347 27C25.0419 27 25.7202 26.719 26.2203 26.219C26.7204 25.7189 27.0013 25.0406 27.0013 24.3333C27.0013 23.6261 26.7204 22.9478 26.2203 22.4477C25.7202 21.9476 25.0419 21.6667 24.3347 21.6667M24.3347 27V29M24.3347 21.6667V19.6667M28.376 22L26.644 23M22.0267 25.6667L20.2933 26.6667M20.2933 22L22.0267 23M26.644 25.6667L28.3773 26.6667M11 15C11 16.0609 11.4214 17.0783 12.1716 17.8284C12.9217 18.5786 13.9391 19 15 19C16.0609 19 17.0783 18.5786 17.8284 17.8284C18.5786 17.0783 19 16.0609 19 15C19 13.9391 18.5786 12.9217 17.8284 12.1716C17.0783 11.4214 16.0609 11 15 11C13.9391 11 12.9217 11.4214 12.1716 12.1716C11.4214 12.9217 11 13.9391 11 15Z" stroke="white" stroke-width="2.66667" stroke-linecap="round" stroke-linejoin="round"/>
</svg>
