<svg width="32" height="32" viewBox="0 0 32 32" fill="none" xmlns="http://www.w3.org/2000/svg">
<path fill-rule="evenodd" clip-rule="evenodd" d="M23.8325 9.33143C25.5962 8.52786 25.75 7.80143 25.75 7.42857C25.75 7.05571 25.5962 6.32929 23.8325 5.52571C22.0688 4.72214 19.3323 4.21429 16 4.21429C12.6677 4.21429 9.9355 4.72214 8.1675 5.52571C6.40167 6.32929 6.25 7.05571 6.25 7.42857C6.25 7.80143 6.40383 8.52786 8.1675 9.33143C9.93117 10.135 12.6677 10.6429 16 10.6429C19.3323 10.6429 22.0645 10.135 23.8325 9.33143ZM25.75 11.9779C23.3667 13.2314 19.8827 13.8571 16 13.8571C12.1173 13.8571 8.63333 13.2314 6.25 11.9779V16C6.25 16.3729 6.40383 17.0993 8.1675 17.9029C9.93117 18.7064 12.6677 19.2143 16 19.2143C19.3323 19.2143 22.0645 18.7064 23.8325 17.9029C25.5962 17.0993 25.75 16.3729 25.75 16V11.9779ZM25.75 20.5493C23.3667 21.8029 19.8827 22.4286 16 22.4286C12.1173 22.4286 8.63333 21.8007 6.25 20.5493V24.5714C6.25 24.9443 6.40383 25.6707 8.1675 26.4721C9.9355 27.28 12.6677 27.7857 16 27.7857C19.3323 27.7857 22.0645 27.28 23.8325 26.4721C25.5962 25.6707 25.75 24.9443 25.75 24.5714V20.5493ZM29 7.42857C29 3.14286 23.1803 1 16 1C8.81967 1 3 3.14286 3 7.42857V24.5714C3 28.8571 8.81967 31 16 31C23.1803 31 29 28.8571 29 24.5714V7.42857Z" fill="white"/>
</svg>
